G75*
%MOIN*%
%OFA0B0*%
%FSLAX24Y24*%
%IPPOS*%
%LPD*%
%AMOC8*
5,1,8,0,0,1.08239X$1,22.5*
%
%ADD10C,0.0060*%
%ADD11C,0.0050*%
%ADD12R,0.0236X0.0591*%
%ADD13C,0.0039*%
%ADD14C,0.0002*%
%ADD15C,0.0020*%
%ADD16C,0.0080*%
D10*
X000443Y001887D02*
X000443Y002114D01*
X000330Y002000D02*
X000557Y002000D01*
X000680Y002080D02*
X000850Y002080D01*
X000907Y002137D01*
X000907Y002193D01*
X000850Y002250D01*
X000680Y002250D01*
X000680Y002080D02*
X000680Y002420D01*
X000850Y002420D01*
X000907Y002364D01*
X000907Y002307D01*
X000850Y002250D01*
X001048Y002250D02*
X001275Y002250D01*
X001275Y002307D02*
X001275Y002080D01*
X001275Y002307D02*
X001162Y002420D01*
X001048Y002307D01*
X001048Y002080D01*
X001417Y002420D02*
X001643Y002420D01*
X001530Y002420D02*
X001530Y002080D01*
X001464Y003032D02*
X001464Y003268D01*
X001936Y003268D02*
X001936Y003032D01*
X001714Y005032D02*
X001714Y005268D01*
X002186Y005268D02*
X002186Y005032D01*
X002820Y006520D02*
X002820Y009280D01*
X005440Y009280D01*
X005580Y009140D01*
X005580Y006520D01*
X002820Y006520D01*
X003332Y005386D02*
X003568Y005386D01*
X003568Y004914D02*
X003332Y004914D01*
X004560Y004290D02*
X004800Y004290D01*
X004832Y004664D02*
X005068Y004664D01*
X005100Y004290D02*
X005340Y004290D01*
X005340Y003510D02*
X005100Y003510D01*
X005068Y003036D02*
X004832Y003036D01*
X004832Y002564D02*
X005068Y002564D01*
X004800Y003510D02*
X004560Y003510D01*
X004832Y005136D02*
X005068Y005136D01*
X005964Y004518D02*
X005964Y004282D01*
X005964Y003268D02*
X005964Y003032D01*
X006380Y002420D02*
X006380Y002193D01*
X006493Y002080D01*
X006607Y002193D01*
X006607Y002420D01*
X006748Y002364D02*
X006748Y002137D01*
X006805Y002080D01*
X006918Y002080D01*
X006975Y002137D01*
X007117Y002137D02*
X007117Y002364D01*
X007173Y002420D01*
X007287Y002420D01*
X007343Y002364D01*
X007343Y002137D02*
X007287Y002080D01*
X007173Y002080D01*
X007117Y002137D01*
X006975Y002364D02*
X006918Y002420D01*
X006805Y002420D01*
X006748Y002364D01*
X006436Y003032D02*
X006436Y003268D01*
X006436Y004282D02*
X006436Y004518D01*
X006714Y004518D02*
X006714Y004282D01*
X007186Y004282D02*
X007186Y004518D01*
X007543Y002064D02*
X007543Y001837D01*
X007430Y001950D02*
X007657Y001950D01*
X007068Y009664D02*
X006832Y009664D01*
X006832Y010136D02*
X007068Y010136D01*
X006568Y013414D02*
X006332Y013414D01*
X006332Y013886D02*
X006568Y013886D01*
X005818Y012886D02*
X005582Y012886D01*
X005582Y012414D02*
X005818Y012414D01*
X005318Y013414D02*
X005082Y013414D01*
X005082Y013886D02*
X005318Y013886D01*
X004700Y011650D02*
X004700Y011400D01*
X004700Y011150D01*
X004550Y011150D02*
X004550Y011650D01*
X004350Y011650D01*
X004350Y011150D01*
X004550Y011150D01*
X004200Y011150D02*
X004200Y011400D01*
X004200Y011650D01*
X004318Y012414D02*
X004082Y012414D01*
X004082Y012886D02*
X004318Y012886D01*
X003686Y013532D02*
X003686Y013768D01*
X003214Y013768D02*
X003214Y013532D01*
X003186Y015532D02*
X003186Y015768D01*
X002714Y015768D02*
X002714Y015532D01*
X002430Y016840D02*
X002430Y018260D01*
X003023Y020320D02*
X003067Y020363D01*
X003067Y020450D01*
X003110Y020493D01*
X003153Y020450D01*
X003153Y020320D01*
X003110Y020614D02*
X003067Y020614D01*
X003067Y020788D01*
X003110Y020788D02*
X003153Y020744D01*
X003153Y020658D01*
X003110Y020614D01*
X002980Y020658D02*
X002980Y020744D01*
X003023Y020788D01*
X003110Y020788D01*
X003110Y020909D02*
X002980Y020909D01*
X002980Y020996D02*
X003110Y020996D01*
X003153Y020952D01*
X003110Y020909D01*
X003110Y020996D02*
X003153Y021039D01*
X003153Y021082D01*
X002980Y021082D01*
X002980Y021192D02*
X002980Y021279D01*
X002980Y021235D02*
X003240Y021235D01*
X003240Y021279D01*
X003110Y021400D02*
X003153Y021443D01*
X003153Y021530D01*
X003110Y021573D01*
X003023Y021573D01*
X002980Y021530D01*
X002980Y021443D01*
X003023Y021400D01*
X003110Y021400D01*
X003110Y021695D02*
X002980Y021695D01*
X003110Y021695D02*
X003153Y021738D01*
X003153Y021825D01*
X003110Y021868D01*
X003153Y021978D02*
X002937Y021978D01*
X002893Y022021D01*
X002893Y022064D01*
X002980Y022186D02*
X003110Y022186D01*
X003153Y022229D01*
X003110Y022272D01*
X002980Y022272D01*
X002980Y022359D02*
X003153Y022359D01*
X003153Y022316D01*
X003110Y022272D01*
X003240Y021868D02*
X002980Y021868D01*
X003240Y021978D02*
X003284Y021978D01*
X003240Y022480D02*
X002980Y022654D01*
X002980Y022775D02*
X003110Y022775D01*
X003153Y022818D01*
X003110Y022862D01*
X002980Y022862D01*
X002980Y022948D02*
X003153Y022948D01*
X003153Y022905D01*
X003110Y022862D01*
X003110Y023070D02*
X003023Y023070D01*
X002980Y023113D01*
X002980Y023200D01*
X003023Y023243D01*
X003110Y023243D01*
X003153Y023200D01*
X003153Y023113D01*
X003110Y023070D01*
X003153Y023364D02*
X003153Y023494D01*
X003110Y023538D01*
X003023Y023538D01*
X002980Y023494D01*
X002980Y023364D01*
X002980Y023642D02*
X002980Y023685D01*
X003023Y023685D01*
X003023Y023642D01*
X002980Y023642D01*
X003023Y023806D02*
X003110Y023806D01*
X003153Y023850D01*
X003153Y023980D01*
X003240Y023980D02*
X002980Y023980D01*
X002980Y023850D01*
X003023Y023806D01*
X002980Y024101D02*
X003153Y024101D01*
X003153Y024274D02*
X003023Y024274D01*
X002980Y024231D01*
X002980Y024101D01*
X002980Y024396D02*
X003110Y024396D01*
X003153Y024439D01*
X003153Y024526D01*
X003110Y024569D01*
X003153Y024679D02*
X003153Y024765D01*
X003197Y024722D02*
X003023Y024722D01*
X002980Y024679D01*
X002980Y024569D02*
X003240Y024569D01*
X003240Y024919D02*
X003284Y024919D01*
X003240Y025378D02*
X002980Y025551D01*
X003240Y025672D02*
X002980Y025846D01*
X002980Y025950D02*
X002980Y025993D01*
X003023Y025993D01*
X003023Y025950D01*
X002980Y025950D01*
X003110Y025950D02*
X003110Y025993D01*
X003153Y025993D01*
X003153Y025950D01*
X003110Y025950D01*
X003153Y026114D02*
X003153Y026244D01*
X003110Y026288D01*
X003067Y026244D01*
X003067Y026158D01*
X003023Y026114D01*
X002980Y026158D01*
X002980Y026288D01*
X003023Y026409D02*
X002980Y026452D01*
X002980Y026582D01*
X002893Y026582D02*
X003153Y026582D01*
X003153Y026452D01*
X003110Y026409D01*
X003023Y026409D01*
X002980Y026692D02*
X003023Y026736D01*
X003197Y026736D01*
X003153Y026779D02*
X003153Y026692D01*
X003153Y026889D02*
X003153Y026975D01*
X003197Y026932D02*
X003023Y026932D01*
X002980Y026889D01*
X002980Y027097D02*
X003110Y027097D01*
X003153Y027140D01*
X003153Y027227D01*
X003110Y027270D01*
X003240Y027270D02*
X002980Y027270D01*
X003023Y025257D02*
X002980Y025213D01*
X002980Y025083D01*
X002937Y025083D02*
X003153Y025083D01*
X003153Y025213D01*
X003110Y025257D01*
X003023Y025257D01*
X002893Y025170D02*
X002893Y025126D01*
X002937Y025083D01*
X002980Y024962D02*
X002980Y024875D01*
X002980Y024919D02*
X003153Y024919D01*
X003153Y024962D01*
X002980Y020493D02*
X002980Y020363D01*
X003023Y020320D01*
X002136Y015118D02*
X002136Y014882D01*
X001664Y014882D02*
X001664Y015118D01*
X000570Y016840D02*
X000570Y018260D01*
X000560Y010290D02*
X000473Y010290D01*
X000430Y010247D01*
X000430Y010073D01*
X000473Y010030D01*
X000560Y010030D01*
X000603Y010073D01*
X000603Y010160D01*
X000517Y010160D01*
X000603Y010247D02*
X000560Y010290D01*
X000725Y010290D02*
X000725Y010030D01*
X000898Y010030D02*
X000725Y010290D01*
X000898Y010290D02*
X000898Y010030D01*
X001019Y010030D02*
X001019Y010290D01*
X001149Y010290D01*
X001193Y010247D01*
X001193Y010073D01*
X001149Y010030D01*
X001019Y010030D01*
X001503Y009089D02*
X001590Y009089D01*
X001633Y009046D01*
X001633Y008916D01*
X001720Y008916D02*
X001460Y008916D01*
X001460Y009046D01*
X001503Y009089D01*
X001503Y008795D02*
X001460Y008751D01*
X001460Y008664D01*
X001503Y008621D01*
X001547Y008621D01*
X001590Y008664D01*
X001590Y008751D01*
X001633Y008795D01*
X001677Y008795D01*
X001720Y008751D01*
X001720Y008664D01*
X001677Y008621D01*
X001677Y008500D02*
X001720Y008457D01*
X001720Y008370D01*
X001677Y008326D01*
X001503Y008326D01*
X001460Y008370D01*
X001460Y008457D01*
X001503Y008500D01*
X001460Y008217D02*
X001460Y008130D01*
X001460Y008173D02*
X001720Y008173D01*
X001720Y008130D02*
X001720Y008217D01*
X001149Y007240D02*
X001063Y007240D01*
X001019Y007197D01*
X001019Y007023D01*
X001063Y006980D01*
X001149Y006980D01*
X001193Y007023D01*
X001193Y007197D02*
X001149Y007240D01*
X000898Y007197D02*
X000855Y007240D01*
X000768Y007240D01*
X000725Y007197D01*
X000725Y007023D01*
X000768Y006980D01*
X000855Y006980D01*
X000898Y007023D01*
X000603Y007067D02*
X000603Y007240D01*
X000603Y007067D02*
X000517Y006980D01*
X000430Y007067D01*
X000430Y007240D01*
X004737Y020903D02*
X004680Y020959D01*
X004680Y021073D01*
X004737Y021129D01*
X004964Y020903D01*
X004737Y020903D01*
X004737Y021129D02*
X004964Y021129D01*
X005020Y021073D01*
X005020Y020959D01*
X004964Y020903D01*
X004737Y021257D02*
X004680Y021257D01*
X004680Y021314D01*
X004737Y021314D01*
X004737Y021257D01*
X004680Y021455D02*
X004680Y021682D01*
X004680Y021568D02*
X005020Y021568D01*
X004907Y021682D01*
X004907Y021823D02*
X004680Y021937D01*
X004907Y022050D01*
X004907Y022555D02*
X004907Y022612D01*
X004793Y022725D01*
X004680Y022725D02*
X004907Y022725D01*
X004850Y022867D02*
X004907Y022924D01*
X004907Y023037D01*
X004850Y023094D01*
X004737Y023094D01*
X004680Y023037D01*
X004680Y022924D01*
X004793Y022867D02*
X004793Y023094D01*
X004680Y023231D02*
X004793Y023401D01*
X004907Y023231D01*
X005020Y023401D02*
X004680Y023401D01*
X004680Y023542D02*
X004680Y023712D01*
X004737Y023769D01*
X004850Y023769D01*
X004907Y023712D01*
X004907Y023542D01*
X004850Y023910D02*
X004680Y023910D01*
X004680Y024081D01*
X004737Y024137D01*
X004793Y024081D01*
X004793Y023910D01*
X004850Y023910D02*
X004907Y023967D01*
X004907Y024081D01*
X004907Y024274D02*
X004907Y024331D01*
X004793Y024444D01*
X004680Y024444D02*
X004907Y024444D01*
X005020Y024586D02*
X005020Y024813D01*
X005020Y024699D02*
X004680Y024699D01*
X004737Y024954D02*
X004680Y025011D01*
X004680Y025124D01*
X004737Y025181D01*
X004850Y025181D01*
X004907Y025124D01*
X004907Y025011D01*
X004850Y024954D01*
X004737Y024954D01*
X004907Y025318D02*
X004907Y025374D01*
X004793Y025488D01*
X004680Y025488D02*
X004907Y025488D01*
X004907Y025629D02*
X004907Y025799D01*
X004850Y025856D01*
X004737Y025856D01*
X004680Y025799D01*
X004680Y025629D01*
X004680Y025988D02*
X004680Y026102D01*
X004680Y026045D02*
X004907Y026045D01*
X004907Y026102D01*
X005020Y026045D02*
X005077Y026045D01*
X004850Y026243D02*
X004907Y026300D01*
X004850Y026357D01*
X004680Y026357D01*
X004680Y026470D02*
X004907Y026470D01*
X004907Y026413D01*
X004850Y026357D01*
X004850Y026243D02*
X004680Y026243D01*
X004793Y022867D02*
X004850Y022867D01*
X005139Y008980D02*
X005141Y009003D01*
X005147Y009026D01*
X005156Y009047D01*
X005169Y009067D01*
X005185Y009084D01*
X005203Y009098D01*
X005223Y009109D01*
X005245Y009117D01*
X005268Y009121D01*
X005292Y009121D01*
X005315Y009117D01*
X005337Y009109D01*
X005357Y009098D01*
X005375Y009084D01*
X005391Y009067D01*
X005404Y009047D01*
X005413Y009026D01*
X005419Y009003D01*
X005421Y008980D01*
X005419Y008957D01*
X005413Y008934D01*
X005404Y008913D01*
X005391Y008893D01*
X005375Y008876D01*
X005357Y008862D01*
X005337Y008851D01*
X005315Y008843D01*
X005292Y008839D01*
X005268Y008839D01*
X005245Y008843D01*
X005223Y008851D01*
X005203Y008862D01*
X005185Y008876D01*
X005169Y008893D01*
X005156Y008913D01*
X005147Y008934D01*
X005141Y008957D01*
X005139Y008980D01*
D11*
X003736Y016028D02*
X003738Y016053D01*
X003744Y016077D01*
X003753Y016100D01*
X003766Y016121D01*
X003783Y016140D01*
X003802Y016157D01*
X003823Y016170D01*
X003846Y016179D01*
X003870Y016185D01*
X003895Y016187D01*
X003920Y016185D01*
X003944Y016179D01*
X003967Y016170D01*
X003988Y016157D01*
X004007Y016140D01*
X004024Y016121D01*
X004037Y016100D01*
X004046Y016077D01*
X004052Y016053D01*
X004054Y016028D01*
X004052Y016003D01*
X004046Y015979D01*
X004037Y015956D01*
X004024Y015935D01*
X004007Y015916D01*
X003988Y015899D01*
X003967Y015886D01*
X003944Y015877D01*
X003920Y015871D01*
X003895Y015869D01*
X003870Y015871D01*
X003846Y015877D01*
X003823Y015886D01*
X003802Y015899D01*
X003783Y015916D01*
X003766Y015935D01*
X003753Y015956D01*
X003744Y015979D01*
X003738Y016003D01*
X003736Y016028D01*
X002438Y017113D02*
X000625Y017113D01*
X000563Y017113D01*
D12*
X003962Y024132D03*
D13*
X003521Y018481D02*
X003422Y018481D01*
X003422Y014662D01*
X003521Y014662D01*
X007340Y014662D02*
X007399Y014662D01*
X007399Y018481D01*
X007340Y018481D01*
D14*
X006468Y011855D02*
X006453Y011845D01*
X006453Y011846D02*
X006421Y011890D01*
X006386Y011932D01*
X006347Y011971D01*
X006306Y012008D01*
X006263Y012041D01*
X006218Y012072D01*
X006170Y012099D01*
X006121Y012123D01*
X006070Y012144D01*
X006018Y012160D01*
X005964Y012174D01*
X005910Y012183D01*
X005856Y012189D01*
X005801Y012191D01*
X005800Y012208D01*
X005801Y012209D01*
X005857Y012207D01*
X005913Y012201D01*
X005968Y012191D01*
X006023Y012178D01*
X006076Y012161D01*
X006128Y012140D01*
X006178Y012115D01*
X006227Y012087D01*
X006274Y012056D01*
X006318Y012021D01*
X006360Y011984D01*
X006399Y011944D01*
X006435Y011901D01*
X006468Y011856D01*
X006467Y011855D01*
X006434Y011900D01*
X006398Y011943D01*
X006359Y011983D01*
X006317Y012021D01*
X006273Y012055D01*
X006226Y012086D01*
X006178Y012114D01*
X006127Y012139D01*
X006076Y012160D01*
X006022Y012177D01*
X005968Y012190D01*
X005913Y012200D01*
X005857Y012206D01*
X005801Y012208D01*
X005801Y012207D01*
X005857Y012205D01*
X005913Y012199D01*
X005968Y012189D01*
X006022Y012176D01*
X006075Y012159D01*
X006127Y012138D01*
X006177Y012113D01*
X006226Y012085D01*
X006272Y012054D01*
X006317Y012020D01*
X006358Y011983D01*
X006397Y011943D01*
X006434Y011900D01*
X006467Y011855D01*
X006466Y011854D01*
X006433Y011899D01*
X006397Y011942D01*
X006358Y011982D01*
X006316Y012019D01*
X006272Y012053D01*
X006225Y012085D01*
X006177Y012112D01*
X006127Y012137D01*
X006075Y012158D01*
X006022Y012175D01*
X005967Y012188D01*
X005912Y012198D01*
X005857Y012204D01*
X005801Y012206D01*
X005801Y012205D01*
X005857Y012203D01*
X005912Y012197D01*
X005967Y012187D01*
X006021Y012174D01*
X006075Y012157D01*
X006126Y012136D01*
X006176Y012112D01*
X006225Y012084D01*
X006271Y012053D01*
X006315Y012018D01*
X006357Y011981D01*
X006396Y011941D01*
X006432Y011899D01*
X006465Y011854D01*
X006464Y011853D01*
X006431Y011898D01*
X006395Y011941D01*
X006356Y011980D01*
X006315Y012018D01*
X006271Y012052D01*
X006224Y012083D01*
X006176Y012111D01*
X006126Y012135D01*
X006074Y012156D01*
X006021Y012173D01*
X005967Y012186D01*
X005912Y012196D01*
X005857Y012202D01*
X005801Y012204D01*
X005801Y012203D01*
X005857Y012201D01*
X005912Y012195D01*
X005967Y012185D01*
X006021Y012172D01*
X006074Y012155D01*
X006125Y012134D01*
X006176Y012110D01*
X006224Y012082D01*
X006270Y012051D01*
X006314Y012017D01*
X006356Y011980D01*
X006394Y011940D01*
X006430Y011897D01*
X006463Y011853D01*
X006463Y011852D01*
X006430Y011897D01*
X006394Y011939D01*
X006355Y011979D01*
X006313Y012016D01*
X006269Y012050D01*
X006223Y012081D01*
X006175Y012109D01*
X006125Y012133D01*
X006073Y012154D01*
X006021Y012171D01*
X005967Y012185D01*
X005912Y012194D01*
X005857Y012200D01*
X005801Y012202D01*
X005801Y012201D01*
X005856Y012199D01*
X005912Y012193D01*
X005966Y012184D01*
X006020Y012170D01*
X006073Y012153D01*
X006125Y012132D01*
X006175Y012108D01*
X006223Y012080D01*
X006269Y012049D01*
X006313Y012015D01*
X006354Y011978D01*
X006393Y011939D01*
X006429Y011896D01*
X006462Y011851D01*
X006461Y011851D01*
X006428Y011896D01*
X006392Y011938D01*
X006354Y011978D01*
X006312Y012015D01*
X006268Y012049D01*
X006222Y012079D01*
X006174Y012107D01*
X006124Y012131D01*
X006073Y012152D01*
X006020Y012169D01*
X005966Y012183D01*
X005912Y012192D01*
X005856Y012198D01*
X005801Y012200D01*
X005801Y012199D01*
X005856Y012197D01*
X005911Y012191D01*
X005966Y012182D01*
X006020Y012168D01*
X006072Y012151D01*
X006124Y012130D01*
X006174Y012106D01*
X006222Y012079D01*
X006268Y012048D01*
X006312Y012014D01*
X006353Y011977D01*
X006391Y011937D01*
X006427Y011895D01*
X006460Y011850D01*
X006459Y011850D01*
X006426Y011894D01*
X006391Y011937D01*
X006352Y011976D01*
X006311Y012013D01*
X006267Y012047D01*
X006221Y012078D01*
X006173Y012105D01*
X006123Y012130D01*
X006072Y012150D01*
X006019Y012167D01*
X005966Y012181D01*
X005911Y012190D01*
X005856Y012196D01*
X005801Y012198D01*
X005801Y012197D01*
X005856Y012195D01*
X005911Y012189D01*
X005966Y012180D01*
X006019Y012166D01*
X006072Y012149D01*
X006123Y012129D01*
X006173Y012104D01*
X006221Y012077D01*
X006267Y012046D01*
X006310Y012012D01*
X006351Y011975D01*
X006390Y011936D01*
X006426Y011894D01*
X006458Y011849D01*
X006425Y011893D01*
X006389Y011935D01*
X006351Y011975D01*
X006310Y012012D01*
X006266Y012045D01*
X006220Y012076D01*
X006172Y012104D01*
X006123Y012128D01*
X006071Y012148D01*
X006019Y012165D01*
X005965Y012179D01*
X005911Y012188D01*
X005856Y012194D01*
X005801Y012196D01*
X005801Y012195D01*
X005856Y012193D01*
X005911Y012187D01*
X005965Y012178D01*
X006019Y012164D01*
X006071Y012147D01*
X006122Y012127D01*
X006172Y012103D01*
X006220Y012075D01*
X006265Y012045D01*
X006309Y012011D01*
X006350Y011974D01*
X006388Y011935D01*
X006424Y011892D01*
X006457Y011848D01*
X006456Y011847D01*
X006423Y011892D01*
X006388Y011934D01*
X006349Y011973D01*
X006308Y012010D01*
X006265Y012044D01*
X006219Y012074D01*
X006171Y012102D01*
X006122Y012126D01*
X006071Y012146D01*
X006018Y012163D01*
X005965Y012177D01*
X005911Y012186D01*
X005856Y012192D01*
X005801Y012194D01*
X005801Y012193D01*
X005856Y012191D01*
X005911Y012185D01*
X005965Y012176D01*
X006018Y012162D01*
X006070Y012145D01*
X006121Y012125D01*
X006171Y012101D01*
X006219Y012074D01*
X006264Y012043D01*
X006308Y012009D01*
X006349Y011973D01*
X006387Y011933D01*
X006423Y011891D01*
X006455Y011847D01*
X006454Y011846D01*
X006422Y011891D01*
X006386Y011932D01*
X006348Y011972D01*
X006307Y012008D01*
X006264Y012042D01*
X006218Y012073D01*
X006170Y012100D01*
X006121Y012124D01*
X006070Y012145D01*
X006018Y012161D01*
X005965Y012175D01*
X005910Y012184D01*
X005856Y012190D01*
X005801Y012192D01*
X005801Y010592D02*
X005801Y010610D01*
X005801Y010609D02*
X005856Y010611D01*
X005910Y010617D01*
X005964Y010626D01*
X006018Y010640D01*
X006070Y010656D01*
X006121Y010677D01*
X006170Y010701D01*
X006218Y010728D01*
X006263Y010759D01*
X006306Y010792D01*
X006347Y010829D01*
X006386Y010868D01*
X006421Y010910D01*
X006453Y010954D01*
X006468Y010945D01*
X006468Y010944D01*
X006435Y010899D01*
X006399Y010856D01*
X006360Y010816D01*
X006318Y010779D01*
X006274Y010744D01*
X006227Y010713D01*
X006178Y010685D01*
X006128Y010660D01*
X006076Y010640D01*
X006023Y010622D01*
X005968Y010609D01*
X005913Y010599D01*
X005857Y010593D01*
X005801Y010591D01*
X005801Y010592D01*
X005857Y010594D01*
X005913Y010600D01*
X005968Y010610D01*
X006022Y010623D01*
X006076Y010640D01*
X006128Y010661D01*
X006178Y010686D01*
X006227Y010714D01*
X006273Y010745D01*
X006317Y010779D01*
X006359Y010817D01*
X006398Y010857D01*
X006434Y010900D01*
X006468Y010945D01*
X006467Y010945D01*
X006434Y010900D01*
X006397Y010857D01*
X006358Y010817D01*
X006317Y010780D01*
X006272Y010746D01*
X006226Y010715D01*
X006177Y010687D01*
X006127Y010662D01*
X006075Y010641D01*
X006022Y010624D01*
X005968Y010611D01*
X005913Y010601D01*
X005857Y010595D01*
X005801Y010593D01*
X005801Y010594D01*
X005857Y010596D01*
X005912Y010602D01*
X005968Y010612D01*
X006022Y010625D01*
X006075Y010642D01*
X006127Y010663D01*
X006177Y010688D01*
X006225Y010715D01*
X006272Y010747D01*
X006316Y010781D01*
X006358Y010818D01*
X006397Y010858D01*
X006433Y010901D01*
X006466Y010946D01*
X006465Y010946D01*
X006432Y010901D01*
X006396Y010859D01*
X006357Y010819D01*
X006315Y010782D01*
X006271Y010747D01*
X006225Y010716D01*
X006177Y010688D01*
X006126Y010664D01*
X006075Y010643D01*
X006021Y010626D01*
X005967Y010613D01*
X005912Y010603D01*
X005857Y010597D01*
X005801Y010595D01*
X005801Y010596D01*
X005857Y010598D01*
X005912Y010604D01*
X005967Y010614D01*
X006021Y010627D01*
X006074Y010644D01*
X006126Y010665D01*
X006176Y010689D01*
X006224Y010717D01*
X006271Y010748D01*
X006315Y010782D01*
X006356Y010820D01*
X006395Y010859D01*
X006431Y010902D01*
X006464Y010947D01*
X006463Y010948D01*
X006430Y010903D01*
X006394Y010860D01*
X006356Y010820D01*
X006314Y010783D01*
X006270Y010749D01*
X006224Y010718D01*
X006176Y010690D01*
X006126Y010666D01*
X006074Y010645D01*
X006021Y010628D01*
X005967Y010615D01*
X005912Y010605D01*
X005857Y010599D01*
X005801Y010597D01*
X005801Y010598D01*
X005857Y010600D01*
X005912Y010606D01*
X005967Y010616D01*
X006021Y010629D01*
X006074Y010646D01*
X006125Y010667D01*
X006175Y010691D01*
X006223Y010719D01*
X006270Y010750D01*
X006313Y010784D01*
X006355Y010821D01*
X006394Y010861D01*
X006430Y010903D01*
X006463Y010948D01*
X006462Y010949D01*
X006429Y010904D01*
X006393Y010861D01*
X006354Y010822D01*
X006313Y010785D01*
X006269Y010751D01*
X006223Y010720D01*
X006175Y010692D01*
X006125Y010668D01*
X006073Y010647D01*
X006020Y010630D01*
X005966Y010616D01*
X005912Y010607D01*
X005857Y010601D01*
X005801Y010599D01*
X005801Y010600D01*
X005856Y010602D01*
X005912Y010608D01*
X005966Y010617D01*
X006020Y010631D01*
X006073Y010648D01*
X006124Y010669D01*
X006174Y010693D01*
X006222Y010721D01*
X006268Y010751D01*
X006312Y010785D01*
X006354Y010822D01*
X006392Y010862D01*
X006428Y010905D01*
X006461Y010949D01*
X006460Y010950D01*
X006427Y010905D01*
X006391Y010863D01*
X006353Y010823D01*
X006312Y010786D01*
X006268Y010752D01*
X006222Y010721D01*
X006174Y010694D01*
X006124Y010670D01*
X006073Y010649D01*
X006020Y010632D01*
X005966Y010618D01*
X005912Y010609D01*
X005856Y010603D01*
X005801Y010601D01*
X005801Y010602D01*
X005856Y010604D01*
X005911Y010610D01*
X005966Y010619D01*
X006020Y010633D01*
X006072Y010650D01*
X006124Y010671D01*
X006173Y010695D01*
X006221Y010722D01*
X006267Y010753D01*
X006311Y010787D01*
X006352Y010824D01*
X006391Y010864D01*
X006427Y010906D01*
X006459Y010950D01*
X006458Y010951D01*
X006426Y010906D01*
X006390Y010864D01*
X006351Y010825D01*
X006310Y010788D01*
X006267Y010754D01*
X006221Y010723D01*
X006173Y010696D01*
X006123Y010671D01*
X006072Y010651D01*
X006019Y010634D01*
X005966Y010620D01*
X005911Y010611D01*
X005856Y010605D01*
X005801Y010603D01*
X005801Y010604D01*
X005856Y010606D01*
X005911Y010612D01*
X005965Y010621D01*
X006019Y010635D01*
X006071Y010652D01*
X006123Y010672D01*
X006172Y010696D01*
X006220Y010724D01*
X006266Y010755D01*
X006310Y010789D01*
X006351Y010825D01*
X006389Y010865D01*
X006425Y010907D01*
X006458Y010951D01*
X006457Y010952D01*
X006424Y010908D01*
X006389Y010866D01*
X006350Y010826D01*
X006309Y010789D01*
X006265Y010755D01*
X006220Y010725D01*
X006172Y010697D01*
X006122Y010673D01*
X006071Y010653D01*
X006019Y010636D01*
X005965Y010622D01*
X005911Y010613D01*
X005856Y010607D01*
X005801Y010605D01*
X005801Y010606D01*
X005856Y010608D01*
X005911Y010614D01*
X005965Y010623D01*
X006018Y010637D01*
X006071Y010654D01*
X006122Y010674D01*
X006171Y010698D01*
X006219Y010726D01*
X006265Y010756D01*
X006308Y010790D01*
X006349Y010827D01*
X006388Y010866D01*
X006423Y010908D01*
X006456Y010953D01*
X006455Y010953D01*
X006423Y010909D01*
X006387Y010867D01*
X006349Y010827D01*
X006308Y010791D01*
X006264Y010757D01*
X006219Y010726D01*
X006171Y010699D01*
X006121Y010675D01*
X006070Y010655D01*
X006018Y010638D01*
X005965Y010624D01*
X005911Y010615D01*
X005856Y010609D01*
X005801Y010607D01*
X005801Y010608D01*
X005856Y010610D01*
X005911Y010616D01*
X005965Y010625D01*
X006018Y010639D01*
X006070Y010655D01*
X006121Y010676D01*
X006170Y010700D01*
X006218Y010727D01*
X006264Y010758D01*
X006307Y010792D01*
X006348Y010828D01*
X006386Y010868D01*
X006422Y010909D01*
X006454Y010954D01*
X005800Y010892D02*
X005800Y010910D01*
X005801Y010909D02*
X005845Y010911D01*
X005888Y010917D01*
X005931Y010927D01*
X005973Y010940D01*
X006013Y010958D01*
X006020Y010942D01*
X006021Y010941D01*
X005986Y010926D01*
X005950Y010914D01*
X005914Y010904D01*
X005877Y010897D01*
X005839Y010892D01*
X005801Y010891D01*
X005801Y010892D01*
X005839Y010893D01*
X005876Y010898D01*
X005914Y010905D01*
X005950Y010915D01*
X005986Y010927D01*
X006021Y010942D01*
X006020Y010943D01*
X005985Y010928D01*
X005950Y010916D01*
X005913Y010906D01*
X005876Y010899D01*
X005839Y010894D01*
X005801Y010893D01*
X005801Y010894D01*
X005839Y010895D01*
X005876Y010900D01*
X005913Y010907D01*
X005950Y010917D01*
X005985Y010929D01*
X006020Y010944D01*
X006019Y010945D01*
X005985Y010930D01*
X005949Y010918D01*
X005913Y010908D01*
X005876Y010901D01*
X005839Y010896D01*
X005801Y010895D01*
X005801Y010896D01*
X005839Y010897D01*
X005876Y010902D01*
X005913Y010909D01*
X005949Y010919D01*
X005984Y010931D01*
X006019Y010946D01*
X006018Y010947D01*
X005984Y010932D01*
X005949Y010919D01*
X005912Y010910D01*
X005876Y010903D01*
X005838Y010898D01*
X005801Y010897D01*
X005801Y010898D01*
X005838Y010899D01*
X005876Y010904D01*
X005912Y010911D01*
X005948Y010920D01*
X005984Y010933D01*
X006018Y010948D01*
X006017Y010949D01*
X005983Y010934D01*
X005948Y010921D01*
X005912Y010912D01*
X005875Y010905D01*
X005838Y010900D01*
X005801Y010899D01*
X005801Y010900D01*
X005838Y010901D01*
X005875Y010906D01*
X005912Y010913D01*
X005948Y010922D01*
X005983Y010935D01*
X006017Y010950D01*
X005983Y010936D01*
X005947Y010923D01*
X005912Y010914D01*
X005875Y010907D01*
X005838Y010902D01*
X005801Y010901D01*
X005801Y010902D01*
X005838Y010903D01*
X005875Y010908D01*
X005911Y010915D01*
X005947Y010924D01*
X005982Y010937D01*
X006016Y010951D01*
X006016Y010952D01*
X005982Y010937D01*
X005947Y010925D01*
X005911Y010916D01*
X005875Y010909D01*
X005838Y010904D01*
X005801Y010903D01*
X005801Y010904D01*
X005845Y010906D01*
X005889Y010912D01*
X005932Y010922D01*
X005975Y010936D01*
X006015Y010953D01*
X006015Y010954D01*
X005974Y010937D01*
X005932Y010923D01*
X005889Y010913D01*
X005845Y010907D01*
X005801Y010905D01*
X005801Y010906D01*
X005845Y010908D01*
X005889Y010914D01*
X005932Y010924D01*
X005974Y010938D01*
X006014Y010955D01*
X006014Y010956D01*
X005973Y010939D01*
X005932Y010925D01*
X005889Y010915D01*
X005845Y010909D01*
X005801Y010907D01*
X005801Y010908D01*
X005845Y010910D01*
X005888Y010916D01*
X005931Y010926D01*
X005973Y010939D01*
X006014Y010957D01*
X006020Y011858D02*
X006013Y011842D01*
X005973Y011860D01*
X005931Y011873D01*
X005888Y011883D01*
X005845Y011889D01*
X005801Y011891D01*
X005800Y011908D01*
X005801Y011909D01*
X005839Y011908D01*
X005877Y011903D01*
X005914Y011896D01*
X005950Y011886D01*
X005986Y011874D01*
X006021Y011859D01*
X006021Y011858D01*
X005986Y011873D01*
X005950Y011885D01*
X005914Y011895D01*
X005876Y011902D01*
X005839Y011907D01*
X005801Y011908D01*
X005801Y011907D01*
X005839Y011906D01*
X005876Y011901D01*
X005913Y011894D01*
X005950Y011884D01*
X005985Y011872D01*
X006020Y011857D01*
X006020Y011856D01*
X005985Y011871D01*
X005950Y011883D01*
X005913Y011893D01*
X005876Y011900D01*
X005839Y011905D01*
X005801Y011906D01*
X005801Y011905D01*
X005839Y011904D01*
X005876Y011899D01*
X005913Y011892D01*
X005949Y011882D01*
X005985Y011870D01*
X006019Y011855D01*
X006019Y011854D01*
X005984Y011869D01*
X005949Y011881D01*
X005913Y011891D01*
X005876Y011898D01*
X005839Y011903D01*
X005801Y011904D01*
X005801Y011903D01*
X005838Y011902D01*
X005876Y011897D01*
X005912Y011890D01*
X005949Y011881D01*
X005984Y011868D01*
X006018Y011853D01*
X006018Y011852D01*
X005984Y011867D01*
X005948Y011880D01*
X005912Y011889D01*
X005876Y011896D01*
X005838Y011901D01*
X005801Y011902D01*
X005801Y011901D01*
X005838Y011900D01*
X005875Y011895D01*
X005912Y011888D01*
X005948Y011879D01*
X005983Y011866D01*
X006017Y011851D01*
X006017Y011850D01*
X005983Y011865D01*
X005948Y011878D01*
X005912Y011887D01*
X005875Y011894D01*
X005838Y011899D01*
X005801Y011900D01*
X005801Y011899D01*
X005838Y011898D01*
X005875Y011893D01*
X005912Y011886D01*
X005947Y011877D01*
X005983Y011864D01*
X006017Y011850D01*
X006016Y011849D01*
X005982Y011863D01*
X005947Y011876D01*
X005911Y011885D01*
X005875Y011892D01*
X005838Y011897D01*
X005801Y011898D01*
X005801Y011897D01*
X005838Y011896D01*
X005875Y011891D01*
X005911Y011884D01*
X005947Y011875D01*
X005982Y011863D01*
X006016Y011848D01*
X006015Y011847D01*
X005975Y011864D01*
X005932Y011878D01*
X005889Y011888D01*
X005845Y011894D01*
X005801Y011896D01*
X005801Y011895D01*
X005845Y011893D01*
X005889Y011887D01*
X005932Y011877D01*
X005974Y011863D01*
X006015Y011846D01*
X006014Y011845D01*
X005974Y011862D01*
X005932Y011876D01*
X005889Y011886D01*
X005845Y011892D01*
X005801Y011894D01*
X005801Y011893D01*
X005845Y011891D01*
X005889Y011885D01*
X005932Y011875D01*
X005973Y011861D01*
X006014Y011844D01*
X006014Y011843D01*
X005973Y011861D01*
X005931Y011874D01*
X005888Y011884D01*
X005845Y011890D01*
X005801Y011892D01*
X003099Y012208D02*
X003099Y012190D01*
X003099Y012191D02*
X003044Y012189D01*
X002990Y012183D01*
X002936Y012174D01*
X002882Y012160D01*
X002830Y012144D01*
X002779Y012123D01*
X002730Y012099D01*
X002682Y012072D01*
X002637Y012041D01*
X002594Y012008D01*
X002553Y011971D01*
X002514Y011932D01*
X002479Y011890D01*
X002447Y011846D01*
X002432Y011855D01*
X002432Y011856D01*
X002465Y011901D01*
X002501Y011944D01*
X002540Y011984D01*
X002582Y012021D01*
X002626Y012056D01*
X002673Y012087D01*
X002722Y012115D01*
X002772Y012140D01*
X002824Y012160D01*
X002877Y012178D01*
X002932Y012191D01*
X002987Y012201D01*
X003043Y012207D01*
X003099Y012209D01*
X003099Y012208D01*
X003043Y012206D01*
X002987Y012200D01*
X002932Y012190D01*
X002878Y012177D01*
X002824Y012160D01*
X002772Y012139D01*
X002722Y012114D01*
X002673Y012086D01*
X002627Y012055D01*
X002583Y012021D01*
X002541Y011983D01*
X002502Y011943D01*
X002466Y011900D01*
X002432Y011855D01*
X002433Y011855D01*
X002466Y011900D01*
X002503Y011943D01*
X002542Y011983D01*
X002583Y012020D01*
X002628Y012054D01*
X002674Y012085D01*
X002723Y012113D01*
X002773Y012138D01*
X002825Y012159D01*
X002878Y012176D01*
X002932Y012189D01*
X002987Y012199D01*
X003043Y012205D01*
X003099Y012207D01*
X003099Y012206D01*
X003043Y012204D01*
X002988Y012198D01*
X002933Y012188D01*
X002878Y012175D01*
X002825Y012158D01*
X002773Y012137D01*
X002723Y012112D01*
X002675Y012085D01*
X002628Y012053D01*
X002584Y012019D01*
X002542Y011982D01*
X002503Y011942D01*
X002467Y011899D01*
X002434Y011854D01*
X002435Y011854D01*
X002468Y011899D01*
X002504Y011941D01*
X002543Y011981D01*
X002585Y012018D01*
X002629Y012053D01*
X002675Y012084D01*
X002723Y012112D01*
X002774Y012136D01*
X002825Y012157D01*
X002879Y012174D01*
X002933Y012187D01*
X002988Y012197D01*
X003043Y012203D01*
X003099Y012205D01*
X003099Y012204D01*
X003043Y012202D01*
X002988Y012196D01*
X002933Y012186D01*
X002879Y012173D01*
X002826Y012156D01*
X002774Y012135D01*
X002724Y012111D01*
X002676Y012083D01*
X002629Y012052D01*
X002585Y012018D01*
X002544Y011980D01*
X002505Y011941D01*
X002469Y011898D01*
X002436Y011853D01*
X002437Y011852D01*
X002470Y011897D01*
X002506Y011940D01*
X002544Y011980D01*
X002586Y012017D01*
X002630Y012051D01*
X002676Y012082D01*
X002724Y012110D01*
X002774Y012134D01*
X002826Y012155D01*
X002879Y012172D01*
X002933Y012185D01*
X002988Y012195D01*
X003043Y012201D01*
X003099Y012203D01*
X003099Y012202D01*
X003043Y012200D01*
X002988Y012194D01*
X002933Y012184D01*
X002879Y012171D01*
X002826Y012154D01*
X002775Y012133D01*
X002725Y012109D01*
X002677Y012081D01*
X002630Y012050D01*
X002587Y012016D01*
X002545Y011979D01*
X002506Y011939D01*
X002470Y011897D01*
X002437Y011852D01*
X002438Y011851D01*
X002471Y011896D01*
X002507Y011939D01*
X002546Y011978D01*
X002587Y012015D01*
X002631Y012049D01*
X002677Y012080D01*
X002725Y012108D01*
X002775Y012132D01*
X002827Y012153D01*
X002880Y012170D01*
X002934Y012184D01*
X002988Y012193D01*
X003043Y012199D01*
X003099Y012201D01*
X003099Y012200D01*
X003044Y012198D01*
X002988Y012192D01*
X002934Y012183D01*
X002880Y012169D01*
X002827Y012152D01*
X002776Y012131D01*
X002726Y012107D01*
X002678Y012079D01*
X002632Y012049D01*
X002588Y012015D01*
X002546Y011978D01*
X002508Y011938D01*
X002472Y011896D01*
X002439Y011851D01*
X002440Y011850D01*
X002473Y011895D01*
X002509Y011937D01*
X002547Y011977D01*
X002588Y012014D01*
X002632Y012048D01*
X002678Y012079D01*
X002726Y012106D01*
X002776Y012130D01*
X002828Y012151D01*
X002880Y012168D01*
X002934Y012182D01*
X002989Y012191D01*
X003044Y012197D01*
X003099Y012199D01*
X003099Y012198D01*
X003044Y012196D01*
X002989Y012190D01*
X002934Y012181D01*
X002880Y012167D01*
X002828Y012150D01*
X002777Y012129D01*
X002727Y012105D01*
X002679Y012078D01*
X002633Y012047D01*
X002589Y012013D01*
X002548Y011976D01*
X002509Y011937D01*
X002474Y011894D01*
X002441Y011850D01*
X002442Y011849D01*
X002474Y011894D01*
X002510Y011936D01*
X002549Y011975D01*
X002590Y012012D01*
X002633Y012046D01*
X002679Y012077D01*
X002727Y012104D01*
X002777Y012129D01*
X002828Y012149D01*
X002881Y012166D01*
X002934Y012180D01*
X002989Y012189D01*
X003044Y012195D01*
X003099Y012197D01*
X003099Y012196D01*
X003044Y012194D01*
X002989Y012188D01*
X002935Y012179D01*
X002881Y012165D01*
X002829Y012148D01*
X002777Y012128D01*
X002728Y012104D01*
X002680Y012076D01*
X002634Y012045D01*
X002590Y012011D01*
X002549Y011975D01*
X002511Y011935D01*
X002475Y011893D01*
X002442Y011849D01*
X002443Y011848D01*
X002476Y011892D01*
X002511Y011934D01*
X002550Y011974D01*
X002591Y012011D01*
X002635Y012045D01*
X002680Y012075D01*
X002728Y012103D01*
X002778Y012127D01*
X002829Y012147D01*
X002881Y012164D01*
X002935Y012178D01*
X002989Y012187D01*
X003044Y012193D01*
X003099Y012195D01*
X003099Y012194D01*
X003044Y012192D01*
X002989Y012186D01*
X002935Y012177D01*
X002882Y012163D01*
X002829Y012146D01*
X002778Y012126D01*
X002729Y012102D01*
X002681Y012074D01*
X002635Y012044D01*
X002592Y012010D01*
X002551Y011973D01*
X002512Y011934D01*
X002477Y011892D01*
X002444Y011847D01*
X002445Y011847D01*
X002477Y011891D01*
X002513Y011933D01*
X002551Y011973D01*
X002592Y012009D01*
X002636Y012043D01*
X002681Y012074D01*
X002729Y012101D01*
X002779Y012125D01*
X002830Y012145D01*
X002882Y012162D01*
X002935Y012176D01*
X002989Y012185D01*
X003044Y012191D01*
X003099Y012193D01*
X003099Y012192D01*
X003044Y012190D01*
X002989Y012184D01*
X002935Y012175D01*
X002882Y012161D01*
X002830Y012145D01*
X002779Y012124D01*
X002730Y012100D01*
X002682Y012073D01*
X002636Y012042D01*
X002593Y012008D01*
X002552Y011972D01*
X002514Y011932D01*
X002478Y011891D01*
X002446Y011846D01*
X002432Y010945D02*
X002447Y010955D01*
X002447Y010954D02*
X002479Y010910D01*
X002514Y010868D01*
X002553Y010829D01*
X002594Y010792D01*
X002637Y010759D01*
X002682Y010728D01*
X002730Y010701D01*
X002779Y010677D01*
X002830Y010656D01*
X002882Y010640D01*
X002936Y010626D01*
X002990Y010617D01*
X003044Y010611D01*
X003099Y010609D01*
X003100Y010592D01*
X003099Y010591D01*
X003043Y010593D01*
X002987Y010599D01*
X002932Y010609D01*
X002877Y010622D01*
X002824Y010639D01*
X002772Y010660D01*
X002722Y010685D01*
X002673Y010713D01*
X002626Y010744D01*
X002582Y010779D01*
X002540Y010816D01*
X002501Y010856D01*
X002465Y010899D01*
X002432Y010944D01*
X002433Y010945D01*
X002466Y010900D01*
X002502Y010857D01*
X002541Y010817D01*
X002583Y010779D01*
X002627Y010745D01*
X002674Y010714D01*
X002722Y010686D01*
X002773Y010661D01*
X002824Y010640D01*
X002878Y010623D01*
X002932Y010610D01*
X002987Y010600D01*
X003043Y010594D01*
X003099Y010592D01*
X003099Y010593D01*
X003043Y010595D01*
X002987Y010601D01*
X002932Y010611D01*
X002878Y010624D01*
X002825Y010641D01*
X002773Y010662D01*
X002723Y010687D01*
X002674Y010715D01*
X002628Y010746D01*
X002583Y010780D01*
X002542Y010817D01*
X002503Y010857D01*
X002466Y010900D01*
X002433Y010945D01*
X002434Y010946D01*
X002467Y010901D01*
X002503Y010858D01*
X002542Y010818D01*
X002584Y010781D01*
X002628Y010747D01*
X002675Y010715D01*
X002723Y010688D01*
X002773Y010663D01*
X002825Y010642D01*
X002878Y010625D01*
X002933Y010612D01*
X002988Y010602D01*
X003043Y010596D01*
X003099Y010594D01*
X003099Y010595D01*
X003043Y010597D01*
X002988Y010603D01*
X002933Y010613D01*
X002879Y010626D01*
X002825Y010643D01*
X002774Y010664D01*
X002724Y010688D01*
X002675Y010716D01*
X002629Y010747D01*
X002585Y010782D01*
X002543Y010819D01*
X002504Y010859D01*
X002468Y010901D01*
X002435Y010946D01*
X002436Y010947D01*
X002469Y010902D01*
X002505Y010859D01*
X002544Y010820D01*
X002585Y010782D01*
X002629Y010748D01*
X002676Y010717D01*
X002724Y010689D01*
X002774Y010665D01*
X002826Y010644D01*
X002879Y010627D01*
X002933Y010614D01*
X002988Y010604D01*
X003043Y010598D01*
X003099Y010596D01*
X003099Y010597D01*
X003043Y010599D01*
X002988Y010605D01*
X002933Y010615D01*
X002879Y010628D01*
X002826Y010645D01*
X002775Y010666D01*
X002724Y010690D01*
X002676Y010718D01*
X002630Y010749D01*
X002586Y010783D01*
X002544Y010820D01*
X002506Y010860D01*
X002470Y010903D01*
X002437Y010947D01*
X002437Y010948D01*
X002470Y010903D01*
X002506Y010861D01*
X002545Y010821D01*
X002587Y010784D01*
X002631Y010750D01*
X002677Y010719D01*
X002725Y010691D01*
X002775Y010667D01*
X002827Y010646D01*
X002879Y010629D01*
X002933Y010615D01*
X002988Y010606D01*
X003043Y010600D01*
X003099Y010598D01*
X003099Y010599D01*
X003044Y010601D01*
X002988Y010607D01*
X002934Y010616D01*
X002880Y010630D01*
X002827Y010647D01*
X002775Y010668D01*
X002725Y010692D01*
X002677Y010720D01*
X002631Y010751D01*
X002587Y010785D01*
X002546Y010822D01*
X002507Y010861D01*
X002471Y010904D01*
X002438Y010949D01*
X002439Y010949D01*
X002472Y010904D01*
X002508Y010862D01*
X002546Y010822D01*
X002588Y010785D01*
X002632Y010751D01*
X002678Y010721D01*
X002726Y010693D01*
X002776Y010669D01*
X002827Y010648D01*
X002880Y010631D01*
X002934Y010617D01*
X002988Y010608D01*
X003044Y010602D01*
X003099Y010600D01*
X003099Y010601D01*
X003044Y010603D01*
X002989Y010609D01*
X002934Y010618D01*
X002880Y010632D01*
X002828Y010649D01*
X002776Y010670D01*
X002726Y010694D01*
X002678Y010721D01*
X002632Y010752D01*
X002588Y010786D01*
X002547Y010823D01*
X002509Y010863D01*
X002473Y010905D01*
X002440Y010950D01*
X002441Y010950D01*
X002474Y010906D01*
X002509Y010863D01*
X002548Y010824D01*
X002589Y010787D01*
X002633Y010753D01*
X002679Y010722D01*
X002727Y010695D01*
X002777Y010670D01*
X002828Y010650D01*
X002881Y010633D01*
X002934Y010619D01*
X002989Y010610D01*
X003044Y010604D01*
X003099Y010602D01*
X003099Y010603D01*
X003044Y010605D01*
X002989Y010611D01*
X002934Y010620D01*
X002881Y010634D01*
X002828Y010651D01*
X002777Y010671D01*
X002727Y010696D01*
X002679Y010723D01*
X002633Y010754D01*
X002590Y010788D01*
X002549Y010825D01*
X002510Y010864D01*
X002474Y010906D01*
X002442Y010951D01*
X002475Y010907D01*
X002511Y010865D01*
X002549Y010825D01*
X002590Y010788D01*
X002634Y010755D01*
X002680Y010724D01*
X002728Y010696D01*
X002777Y010672D01*
X002829Y010652D01*
X002881Y010635D01*
X002935Y010621D01*
X002989Y010612D01*
X003044Y010606D01*
X003099Y010604D01*
X003099Y010605D01*
X003044Y010607D01*
X002989Y010613D01*
X002935Y010622D01*
X002881Y010636D01*
X002829Y010653D01*
X002778Y010673D01*
X002728Y010697D01*
X002680Y010725D01*
X002635Y010755D01*
X002591Y010789D01*
X002550Y010826D01*
X002512Y010865D01*
X002476Y010908D01*
X002443Y010952D01*
X002444Y010953D01*
X002477Y010908D01*
X002512Y010866D01*
X002551Y010827D01*
X002592Y010790D01*
X002635Y010756D01*
X002681Y010726D01*
X002729Y010698D01*
X002778Y010674D01*
X002829Y010654D01*
X002882Y010637D01*
X002935Y010623D01*
X002989Y010614D01*
X003044Y010608D01*
X003099Y010606D01*
X003099Y010607D01*
X003044Y010609D01*
X002989Y010615D01*
X002935Y010624D01*
X002882Y010638D01*
X002830Y010655D01*
X002779Y010675D01*
X002729Y010699D01*
X002681Y010726D01*
X002636Y010757D01*
X002592Y010791D01*
X002551Y010827D01*
X002513Y010867D01*
X002477Y010909D01*
X002445Y010953D01*
X002446Y010954D01*
X002478Y010909D01*
X002514Y010868D01*
X002552Y010828D01*
X002593Y010792D01*
X002636Y010758D01*
X002682Y010727D01*
X002730Y010700D01*
X002779Y010676D01*
X002830Y010655D01*
X002882Y010639D01*
X002935Y010625D01*
X002990Y010616D01*
X003044Y010610D01*
X003099Y010608D01*
X002880Y010942D02*
X002887Y010958D01*
X002927Y010940D01*
X002969Y010927D01*
X003012Y010917D01*
X003055Y010911D01*
X003099Y010909D01*
X003100Y010892D01*
X003099Y010891D01*
X003061Y010892D01*
X003023Y010897D01*
X002986Y010904D01*
X002950Y010914D01*
X002914Y010926D01*
X002879Y010941D01*
X002879Y010942D01*
X002914Y010927D01*
X002950Y010915D01*
X002986Y010905D01*
X003024Y010898D01*
X003061Y010893D01*
X003099Y010892D01*
X003099Y010893D01*
X003061Y010894D01*
X003024Y010899D01*
X002987Y010906D01*
X002950Y010916D01*
X002915Y010928D01*
X002880Y010943D01*
X002880Y010944D01*
X002915Y010929D01*
X002950Y010917D01*
X002987Y010907D01*
X003024Y010900D01*
X003061Y010895D01*
X003099Y010894D01*
X003099Y010895D01*
X003061Y010896D01*
X003024Y010901D01*
X002987Y010908D01*
X002951Y010918D01*
X002915Y010930D01*
X002881Y010945D01*
X002881Y010946D01*
X002916Y010931D01*
X002951Y010919D01*
X002987Y010909D01*
X003024Y010902D01*
X003061Y010897D01*
X003099Y010896D01*
X003099Y010897D01*
X003062Y010898D01*
X003024Y010903D01*
X002988Y010910D01*
X002951Y010919D01*
X002916Y010932D01*
X002882Y010947D01*
X002882Y010948D01*
X002916Y010933D01*
X002952Y010920D01*
X002988Y010911D01*
X003024Y010904D01*
X003062Y010899D01*
X003099Y010898D01*
X003099Y010899D01*
X003062Y010900D01*
X003025Y010905D01*
X002988Y010912D01*
X002952Y010921D01*
X002917Y010934D01*
X002883Y010949D01*
X002883Y010950D01*
X002917Y010935D01*
X002952Y010922D01*
X002988Y010913D01*
X003025Y010906D01*
X003062Y010901D01*
X003099Y010900D01*
X003099Y010901D01*
X003062Y010902D01*
X003025Y010907D01*
X002988Y010914D01*
X002953Y010923D01*
X002917Y010936D01*
X002883Y010950D01*
X002884Y010951D01*
X002918Y010937D01*
X002953Y010924D01*
X002989Y010915D01*
X003025Y010908D01*
X003062Y010903D01*
X003099Y010902D01*
X003099Y010903D01*
X003062Y010904D01*
X003025Y010909D01*
X002989Y010916D01*
X002953Y010925D01*
X002918Y010937D01*
X002884Y010952D01*
X002885Y010953D01*
X002925Y010936D01*
X002968Y010922D01*
X003011Y010912D01*
X003055Y010906D01*
X003099Y010904D01*
X003099Y010905D01*
X003055Y010907D01*
X003011Y010913D01*
X002968Y010923D01*
X002926Y010937D01*
X002885Y010954D01*
X002886Y010955D01*
X002926Y010938D01*
X002968Y010924D01*
X003011Y010914D01*
X003055Y010908D01*
X003099Y010906D01*
X003099Y010907D01*
X003055Y010909D01*
X003011Y010915D01*
X002968Y010925D01*
X002927Y010939D01*
X002886Y010956D01*
X002886Y010957D01*
X002927Y010939D01*
X002969Y010926D01*
X003012Y010916D01*
X003055Y010910D01*
X003099Y010908D01*
X003100Y011908D02*
X003100Y011890D01*
X003099Y011891D02*
X003055Y011889D01*
X003012Y011883D01*
X002969Y011873D01*
X002927Y011860D01*
X002887Y011842D01*
X002880Y011858D01*
X002879Y011859D01*
X002914Y011874D01*
X002950Y011886D01*
X002986Y011896D01*
X003023Y011903D01*
X003061Y011908D01*
X003099Y011909D01*
X003099Y011908D01*
X003061Y011907D01*
X003024Y011902D01*
X002986Y011895D01*
X002950Y011885D01*
X002914Y011873D01*
X002879Y011858D01*
X002880Y011857D01*
X002915Y011872D01*
X002950Y011884D01*
X002987Y011894D01*
X003024Y011901D01*
X003061Y011906D01*
X003099Y011907D01*
X003099Y011906D01*
X003061Y011905D01*
X003024Y011900D01*
X002987Y011893D01*
X002950Y011883D01*
X002915Y011871D01*
X002880Y011856D01*
X002881Y011855D01*
X002915Y011870D01*
X002951Y011882D01*
X002987Y011892D01*
X003024Y011899D01*
X003061Y011904D01*
X003099Y011905D01*
X003099Y011904D01*
X003061Y011903D01*
X003024Y011898D01*
X002987Y011891D01*
X002951Y011881D01*
X002916Y011869D01*
X002881Y011854D01*
X002882Y011853D01*
X002916Y011868D01*
X002951Y011881D01*
X002988Y011890D01*
X003024Y011897D01*
X003062Y011902D01*
X003099Y011903D01*
X003099Y011902D01*
X003062Y011901D01*
X003024Y011896D01*
X002988Y011889D01*
X002952Y011880D01*
X002916Y011867D01*
X002882Y011852D01*
X002883Y011851D01*
X002917Y011866D01*
X002952Y011879D01*
X002988Y011888D01*
X003025Y011895D01*
X003062Y011900D01*
X003099Y011901D01*
X003099Y011900D01*
X003062Y011899D01*
X003025Y011894D01*
X002988Y011887D01*
X002952Y011878D01*
X002917Y011865D01*
X002883Y011850D01*
X002917Y011864D01*
X002953Y011877D01*
X002988Y011886D01*
X003025Y011893D01*
X003062Y011898D01*
X003099Y011899D01*
X003099Y011898D01*
X003062Y011897D01*
X003025Y011892D01*
X002989Y011885D01*
X002953Y011876D01*
X002918Y011863D01*
X002884Y011849D01*
X002884Y011848D01*
X002918Y011863D01*
X002953Y011875D01*
X002989Y011884D01*
X003025Y011891D01*
X003062Y011896D01*
X003099Y011897D01*
X003099Y011896D01*
X003055Y011894D01*
X003011Y011888D01*
X002968Y011878D01*
X002925Y011864D01*
X002885Y011847D01*
X002885Y011846D01*
X002926Y011863D01*
X002968Y011877D01*
X003011Y011887D01*
X003055Y011893D01*
X003099Y011895D01*
X003099Y011894D01*
X003055Y011892D01*
X003011Y011886D01*
X002968Y011876D01*
X002926Y011862D01*
X002886Y011845D01*
X002886Y011844D01*
X002927Y011861D01*
X002968Y011875D01*
X003011Y011885D01*
X003055Y011891D01*
X003099Y011893D01*
X003099Y011892D01*
X003055Y011890D01*
X003012Y011884D01*
X002969Y011874D01*
X002927Y011861D01*
X002886Y011843D01*
D15*
X003100Y011900D02*
X005800Y011900D01*
X005800Y012200D02*
X003100Y012200D01*
X003100Y010900D02*
X005800Y010900D01*
X005800Y010600D02*
X003100Y010600D01*
X004050Y011400D02*
X004200Y011400D01*
X004700Y011400D02*
X004850Y011400D01*
D16*
X000450Y001150D02*
X000700Y000900D01*
X001200Y000900D01*
X001450Y001150D01*
X001700Y000900D01*
X002200Y000900D01*
X002450Y001150D01*
X002450Y001650D01*
X002200Y001900D01*
X001700Y001900D01*
X001450Y001650D01*
X001200Y001900D01*
X000700Y001900D01*
X000450Y001650D01*
X000450Y001150D01*
X002306Y012705D02*
X003094Y012705D01*
X003094Y013256D01*
X002936Y013532D02*
X002700Y013768D01*
X002464Y013532D01*
X002936Y013532D01*
X002976Y013768D02*
X002700Y013768D01*
X002424Y013768D01*
X002306Y014044D02*
X002306Y014595D01*
X003094Y014595D01*
X003094Y014044D01*
X002306Y013256D02*
X002306Y012705D01*
X005700Y001900D02*
X005450Y001650D01*
X005450Y001150D01*
X005700Y000900D01*
X006200Y000900D01*
X006450Y001150D01*
X006700Y000900D01*
X007200Y000900D01*
X007450Y001150D01*
X007450Y001650D01*
X007200Y001900D01*
X006700Y001900D01*
X006450Y001650D01*
X006200Y001900D01*
X005700Y001900D01*
M02*
