%
M48
M72
T01C0.0120
T02C0.0197
T03C0.0276
T04C0.0400
T05C0.0787
%
T01
X1700Y6800
X2400Y6250
X2500Y5250
X3200Y7400
X2400Y9450
X2200Y10100
X2250Y10700
X2450Y12250
X2250Y13650
X1900Y12450
X1350Y12650
X1300Y10450
X1400Y9150
X3150Y14800
X3900Y15650
X4250Y13900
X4250Y13400
X4950Y13100
X4600Y15550
X5400Y15550
X5300Y10650
X4800Y8700
X4450Y6900
X4100Y8650
X5000Y5650
X4950Y3900
X4900Y3400
X5950Y9600
X7200Y10550
X7200Y5250
X3250Y12250
T02
X4100Y16550
X4100Y17550
X4600Y17550
X4600Y16550
X5100Y16550
X5100Y17550
X5600Y17550
X5600Y16550
X6100Y16550
X6100Y17550
X6600Y17550
X6600Y16550
X6900Y13050
X6700Y12350
X5750Y5450
X6350Y5350
X6850Y3250
X5650Y2250
X2950Y2500
X1950Y2250
X950Y3250
X950Y17650
X1550Y17650
X2100Y17650
X3350Y19250
X4050Y19250
T03
X700Y15150
X700Y14150
X700Y13150
X700Y12150
X700Y6150
X700Y5150
X700Y4150
T04
X950Y1400
X1950Y1400
X5950Y1400
X6950Y1400
T05
X3950Y27450
M30
