G75*
%MOIN*%
%OFA0B0*%
%FSLAX24Y24*%
%IPPOS*%
%LPD*%
%AMOC8*
5,1,8,0,0,1.08239X$1,22.5*
%
%ADD10C,0.0000*%
D10*
X000200Y001150D02*
X000200Y019150D01*
X000202Y019194D01*
X000208Y019237D01*
X000217Y019279D01*
X000230Y019321D01*
X000247Y019361D01*
X000267Y019400D01*
X000290Y019437D01*
X000317Y019471D01*
X000346Y019504D01*
X000379Y019533D01*
X000413Y019560D01*
X000450Y019583D01*
X000489Y019603D01*
X000529Y019620D01*
X000571Y019633D01*
X000613Y019642D01*
X000656Y019648D01*
X000700Y019650D01*
X002200Y019650D01*
X002244Y019652D01*
X002287Y019658D01*
X002329Y019667D01*
X002371Y019680D01*
X002411Y019697D01*
X002450Y019717D01*
X002487Y019740D01*
X002521Y019767D01*
X002554Y019796D01*
X002583Y019829D01*
X002610Y019863D01*
X002633Y019900D01*
X002653Y019939D01*
X002670Y019979D01*
X002683Y020021D01*
X002692Y020063D01*
X002698Y020106D01*
X002700Y020150D01*
X002700Y025649D01*
X002700Y026149D01*
X002701Y027649D01*
X002700Y027649D02*
X002702Y027693D01*
X002708Y027736D01*
X002717Y027778D01*
X002730Y027820D01*
X002747Y027860D01*
X002767Y027899D01*
X002791Y027936D01*
X002817Y027971D01*
X002847Y028003D01*
X002879Y028032D01*
X002914Y028059D01*
X002950Y028082D01*
X002989Y028102D01*
X003030Y028119D01*
X003071Y028132D01*
X003114Y028142D01*
X003157Y028147D01*
X003201Y028149D01*
X003201Y028148D02*
X004701Y028148D01*
X004701Y028147D02*
X004745Y028145D01*
X004788Y028139D01*
X004831Y028130D01*
X004872Y028117D01*
X004913Y028100D01*
X004951Y028080D01*
X004988Y028056D01*
X005023Y028030D01*
X005055Y028000D01*
X005084Y027968D01*
X005111Y027934D01*
X005134Y027897D01*
X005154Y027858D01*
X005171Y027818D01*
X005184Y027776D01*
X005193Y027734D01*
X005199Y027690D01*
X005201Y027647D01*
X005200Y026147D01*
X005200Y025647D01*
X005200Y020146D01*
X005202Y020102D01*
X005208Y020059D01*
X005217Y020017D01*
X005230Y019975D01*
X005247Y019935D01*
X005267Y019896D01*
X005290Y019859D01*
X005317Y019825D01*
X005346Y019792D01*
X005379Y019763D01*
X005413Y019736D01*
X005450Y019713D01*
X005489Y019693D01*
X005529Y019676D01*
X005571Y019663D01*
X005613Y019654D01*
X005656Y019648D01*
X005700Y019646D01*
X007220Y019646D01*
X007264Y019644D01*
X007307Y019638D01*
X007349Y019629D01*
X007391Y019616D01*
X007431Y019599D01*
X007470Y019579D01*
X007507Y019556D01*
X007541Y019529D01*
X007574Y019500D01*
X007603Y019467D01*
X007630Y019433D01*
X007653Y019396D01*
X007673Y019357D01*
X007690Y019317D01*
X007703Y019275D01*
X007712Y019233D01*
X007718Y019190D01*
X007720Y019146D01*
X007720Y001150D01*
X007718Y001106D01*
X007712Y001063D01*
X007703Y001021D01*
X007690Y000979D01*
X007673Y000939D01*
X007653Y000900D01*
X007630Y000863D01*
X007603Y000829D01*
X007574Y000796D01*
X007541Y000767D01*
X007507Y000740D01*
X007470Y000717D01*
X007431Y000697D01*
X007391Y000680D01*
X007349Y000667D01*
X007307Y000658D01*
X007264Y000652D01*
X007220Y000650D01*
X005450Y000650D01*
X005450Y000150D01*
X002450Y000150D01*
X002450Y000650D01*
X000700Y000650D01*
X000656Y000652D01*
X000613Y000658D01*
X000571Y000667D01*
X000529Y000680D01*
X000489Y000697D01*
X000450Y000717D01*
X000413Y000740D01*
X000379Y000767D01*
X000346Y000796D01*
X000317Y000829D01*
X000290Y000863D01*
X000267Y000900D01*
X000247Y000939D01*
X000230Y000979D01*
X000217Y001021D01*
X000208Y001063D01*
X000202Y001106D01*
X000200Y001150D01*
X005200Y025647D02*
X005200Y025647D01*
X003556Y027450D02*
X003558Y027489D01*
X003564Y027528D01*
X003574Y027566D01*
X003587Y027603D01*
X003604Y027638D01*
X003624Y027672D01*
X003648Y027703D01*
X003675Y027732D01*
X003704Y027758D01*
X003736Y027781D01*
X003770Y027801D01*
X003806Y027817D01*
X003843Y027829D01*
X003882Y027838D01*
X003921Y027843D01*
X003960Y027844D01*
X003999Y027841D01*
X004038Y027834D01*
X004075Y027823D01*
X004112Y027809D01*
X004147Y027791D01*
X004180Y027770D01*
X004211Y027745D01*
X004239Y027718D01*
X004264Y027688D01*
X004286Y027655D01*
X004305Y027621D01*
X004320Y027585D01*
X004332Y027547D01*
X004340Y027509D01*
X004344Y027470D01*
X004344Y027430D01*
X004340Y027391D01*
X004332Y027353D01*
X004320Y027315D01*
X004305Y027279D01*
X004286Y027245D01*
X004264Y027212D01*
X004239Y027182D01*
X004211Y027155D01*
X004180Y027130D01*
X004147Y027109D01*
X004112Y027091D01*
X004075Y027077D01*
X004038Y027066D01*
X003999Y027059D01*
X003960Y027056D01*
X003921Y027057D01*
X003882Y027062D01*
X003843Y027071D01*
X003806Y027083D01*
X003770Y027099D01*
X003736Y027119D01*
X003704Y027142D01*
X003675Y027168D01*
X003648Y027197D01*
X003624Y027228D01*
X003604Y027262D01*
X003587Y027297D01*
X003574Y027334D01*
X003564Y027372D01*
X003558Y027411D01*
X003556Y027450D01*
M02*
