G75*
%MOIN*%
%OFA0B0*%
%FSLAX24Y24*%
%IPPOS*%
%LPD*%
%AMOC8*
5,1,8,0,0,1.08239X$1,22.5*
%
%ADD10C,0.0860*%
%ADD11R,0.0240X0.0870*%
%ADD12R,0.1260X0.0551*%
%ADD13R,0.0320X0.0120*%
%ADD14R,0.0220X0.0540*%
%ADD15R,0.0315X0.0472*%
%ADD16R,0.0472X0.0315*%
%ADD17R,0.0787X0.0394*%
%ADD18R,0.0315X0.0709*%
%ADD19R,0.0276X0.0709*%
%ADD20R,0.0220X0.0500*%
%ADD21R,0.0500X0.0220*%
%ADD22R,0.2362X0.0760*%
%ADD23R,0.0551X0.0472*%
%ADD24R,0.1000X0.0500*%
%ADD25C,0.0740*%
%ADD26R,0.0600X0.1800*%
%ADD27C,0.0100*%
%ADD28C,0.0320*%
%ADD29C,0.0160*%
%ADD30C,0.0240*%
%ADD31C,0.0317*%
%ADD32C,0.0240*%
%ADD33C,0.0120*%
D10*
X000700Y004150D03*
X000700Y005150D03*
X000700Y006150D03*
X000700Y012150D03*
X000700Y013150D03*
X000700Y014150D03*
X000700Y015150D03*
D11*
X000750Y016520D03*
X001250Y016520D03*
X001750Y016520D03*
X002250Y016520D03*
X002250Y018580D03*
X001750Y018580D03*
X001250Y018580D03*
X000750Y018580D03*
D12*
X003200Y004312D03*
X003200Y003525D03*
D13*
X004580Y003700D03*
X004580Y003900D03*
X004580Y004100D03*
X005320Y004100D03*
X005320Y003900D03*
X005320Y003700D03*
D14*
X004950Y003900D03*
D15*
X004596Y004900D03*
X004596Y002800D03*
X005304Y002800D03*
X005304Y004900D03*
X006596Y009900D03*
X007304Y009900D03*
X006804Y013650D03*
X006096Y013650D03*
X006054Y012650D03*
X005554Y013650D03*
X005346Y012650D03*
X004846Y013650D03*
X004554Y012650D03*
X003846Y012650D03*
X003804Y005150D03*
X003096Y005150D03*
D16*
X001950Y004796D03*
X001950Y005504D03*
X001700Y003504D03*
X001700Y002796D03*
X003450Y013296D03*
X003450Y014004D03*
X002950Y015296D03*
X002950Y016004D03*
X001900Y015354D03*
X001900Y014646D03*
X006200Y004754D03*
X006200Y004046D03*
X006200Y003504D03*
X006200Y002796D03*
X006950Y004046D03*
X006950Y004754D03*
D17*
X003950Y023400D03*
X003950Y026195D03*
D18*
X004131Y018441D03*
X004564Y018441D03*
X004997Y018441D03*
X005430Y018441D03*
X005863Y018441D03*
X006296Y018441D03*
X006730Y018441D03*
X006730Y014701D03*
X006296Y014701D03*
X005863Y014701D03*
X005430Y014701D03*
X004997Y014701D03*
X004564Y014701D03*
X004131Y014701D03*
D19*
X003718Y014701D03*
X003718Y018441D03*
X007143Y018441D03*
X007143Y014701D03*
D20*
X005302Y009590D03*
X004987Y009590D03*
X004672Y009590D03*
X004357Y009590D03*
X004043Y009590D03*
X003728Y009590D03*
X003413Y009590D03*
X003098Y009590D03*
X003098Y006210D03*
X003413Y006210D03*
X003728Y006210D03*
X004043Y006210D03*
X004357Y006210D03*
X004672Y006210D03*
X004987Y006210D03*
X005302Y006210D03*
D21*
X005890Y006798D03*
X005890Y007113D03*
X005890Y007428D03*
X005890Y007743D03*
X005890Y008057D03*
X005890Y008372D03*
X005890Y008687D03*
X005890Y009002D03*
X002510Y009002D03*
X002510Y008687D03*
X002510Y008372D03*
X002510Y008057D03*
X002510Y007743D03*
X002510Y007428D03*
X002510Y007113D03*
X002510Y006798D03*
D22*
X002836Y011400D03*
X006064Y011400D03*
D23*
X002700Y013059D03*
X002700Y014241D03*
D24*
X000750Y009400D03*
X000750Y008650D03*
X000750Y007900D03*
X007200Y008150D03*
X007200Y007400D03*
X007200Y006650D03*
X007200Y005900D03*
X007200Y008900D03*
D25*
X006950Y001400D03*
X005950Y001400D03*
X001950Y001400D03*
X000950Y001400D03*
D26*
X002950Y001150D03*
X004950Y001150D03*
D27*
X000376Y000933D02*
X000317Y001074D01*
X000310Y001150D01*
X000310Y003720D01*
X000322Y003708D01*
X000396Y003654D01*
X000477Y003612D01*
X000564Y003584D01*
X000654Y003570D01*
X000681Y003570D01*
X000681Y004131D01*
X000719Y004131D01*
X000719Y004169D01*
X001280Y004169D01*
X001280Y004196D01*
X001266Y004286D01*
X001238Y004373D01*
X001196Y004454D01*
X001142Y004528D01*
X001078Y004592D01*
X001004Y004646D01*
X000955Y004671D01*
X001006Y004692D01*
X001158Y004844D01*
X001240Y005043D01*
X001240Y005257D01*
X001158Y005456D01*
X001006Y005608D01*
X000955Y005629D01*
X001004Y005654D01*
X001078Y005708D01*
X001142Y005772D01*
X001196Y005846D01*
X001238Y005927D01*
X001266Y006014D01*
X001280Y006104D01*
X001280Y006131D01*
X000719Y006131D01*
X000719Y006169D01*
X000681Y006169D01*
X000681Y006730D01*
X000654Y006730D01*
X000564Y006716D01*
X000477Y006688D01*
X000396Y006646D01*
X000322Y006592D01*
X000310Y006580D01*
X000310Y007540D01*
X000640Y007540D01*
X000640Y007134D01*
X000734Y007040D01*
X001490Y006284D01*
X001490Y005984D01*
X001584Y005890D01*
X001669Y005805D01*
X001656Y005802D01*
X001622Y005782D01*
X001594Y005754D01*
X001574Y005720D01*
X001564Y005682D01*
X001564Y005533D01*
X001921Y005533D01*
X001921Y005476D01*
X001564Y005476D01*
X001564Y005327D01*
X001574Y005289D01*
X001594Y005255D01*
X001622Y005227D01*
X001656Y005207D01*
X001694Y005197D01*
X001921Y005197D01*
X001921Y005476D01*
X001979Y005476D01*
X001979Y005533D01*
X002336Y005533D01*
X002336Y005588D01*
X002434Y005490D01*
X002830Y005490D01*
X002818Y005478D01*
X002798Y005444D01*
X002788Y005406D01*
X002788Y005179D01*
X003067Y005179D01*
X003067Y005121D01*
X003124Y005121D01*
X003124Y004764D01*
X003273Y004764D01*
X003311Y004774D01*
X003345Y004794D01*
X003373Y004822D01*
X003393Y004856D01*
X003403Y004894D01*
X003403Y005121D01*
X003124Y005121D01*
X003124Y005179D01*
X003403Y005179D01*
X003403Y005406D01*
X003393Y005444D01*
X003373Y005478D01*
X003345Y005506D01*
X003311Y005526D01*
X003304Y005528D01*
X003360Y005584D01*
X003573Y005796D01*
X003573Y005850D01*
X003873Y005850D01*
X003873Y005496D01*
X003601Y005496D01*
X003537Y005432D01*
X003537Y004868D01*
X003601Y004804D01*
X004007Y004804D01*
X004072Y004868D01*
X004072Y005177D01*
X004113Y005218D01*
X004213Y005318D01*
X004213Y005814D01*
X004228Y005810D01*
X004352Y005810D01*
X004352Y006205D01*
X004362Y006205D01*
X004362Y005810D01*
X004487Y005810D01*
X004525Y005820D01*
X004560Y005840D01*
X004570Y005850D01*
X004828Y005850D01*
X004830Y005852D01*
X004830Y005852D01*
X004830Y005805D01*
X004770Y005745D01*
X004770Y005555D01*
X004905Y005420D01*
X005095Y005420D01*
X005230Y005555D01*
X005230Y005745D01*
X005170Y005805D01*
X005170Y005850D01*
X005422Y005850D01*
X005442Y005830D01*
X005542Y005730D01*
X006590Y005730D01*
X006590Y005604D01*
X006654Y005540D01*
X007610Y005540D01*
X007610Y004565D01*
X007430Y004745D01*
X007370Y004805D01*
X007370Y005095D01*
X007430Y005155D01*
X007430Y005345D01*
X007295Y005480D01*
X007105Y005480D01*
X006970Y005345D01*
X006970Y005155D01*
X007030Y005095D01*
X007030Y005022D01*
X006668Y005022D01*
X006631Y004984D01*
X006519Y004984D01*
X006482Y005022D01*
X005918Y005022D01*
X005881Y004984D01*
X005572Y004984D01*
X005572Y005182D01*
X005507Y005246D01*
X005101Y005246D01*
X005037Y005182D01*
X005037Y004618D01*
X005101Y004554D01*
X005134Y004554D01*
X005134Y004300D01*
X005118Y004310D01*
X005080Y004320D01*
X004955Y004320D01*
X004955Y003905D01*
X004945Y003905D01*
X004945Y004320D01*
X004820Y004320D01*
X004782Y004310D01*
X004748Y004290D01*
X004728Y004270D01*
X004650Y004270D01*
X004538Y004383D01*
X004438Y004482D01*
X003940Y004482D01*
X003940Y004634D01*
X003875Y004698D01*
X002525Y004698D01*
X002460Y004634D01*
X002460Y003991D01*
X002525Y003927D01*
X003875Y003927D01*
X003940Y003991D01*
X003940Y004142D01*
X004297Y004142D01*
X004310Y004130D01*
X004310Y004062D01*
X004300Y004052D01*
X004280Y004018D01*
X004270Y003980D01*
X004270Y003900D01*
X004580Y003900D01*
X004890Y003900D01*
X004890Y003905D01*
X004945Y003905D01*
X004945Y003895D01*
X004890Y003895D01*
X004890Y003900D01*
X004580Y003900D01*
X004580Y003900D01*
X004580Y003900D01*
X004270Y003900D01*
X004270Y003860D01*
X003926Y003860D01*
X003875Y003911D01*
X002525Y003911D01*
X002460Y003846D01*
X002460Y003204D01*
X002479Y003185D01*
X002359Y003066D01*
X001646Y003066D01*
X001640Y003063D01*
X001418Y003063D01*
X001354Y002999D01*
X001354Y002920D01*
X001146Y002920D01*
X001047Y002879D01*
X000971Y002803D01*
X000721Y002553D01*
X000680Y002454D01*
X000680Y001808D01*
X000678Y001807D01*
X000543Y001672D01*
X000470Y001495D01*
X000470Y001305D01*
X000543Y001128D01*
X000678Y000993D01*
X000855Y000920D01*
X001045Y000920D01*
X001222Y000993D01*
X001357Y001128D01*
X001430Y001305D01*
X001430Y001495D01*
X001357Y001672D01*
X001222Y001807D01*
X001220Y001808D01*
X001220Y002288D01*
X001312Y002380D01*
X001608Y002380D01*
X001707Y002421D01*
X001812Y002526D01*
X002524Y002526D01*
X002624Y002567D01*
X002700Y002643D01*
X003196Y003139D01*
X003875Y003139D01*
X003940Y003204D01*
X003940Y003540D01*
X004364Y003540D01*
X004374Y003530D01*
X004390Y003530D01*
X004390Y003144D01*
X004328Y003082D01*
X004328Y002518D01*
X004393Y002454D01*
X004799Y002454D01*
X004863Y002518D01*
X004863Y002790D01*
X004866Y002790D01*
X004960Y002884D01*
X004997Y002921D01*
X004997Y002829D01*
X005276Y002829D01*
X005276Y002771D01*
X005333Y002771D01*
X005333Y002414D01*
X005482Y002414D01*
X005520Y002424D01*
X005554Y002444D01*
X005582Y002472D01*
X005602Y002506D01*
X005612Y002544D01*
X005612Y002771D01*
X005333Y002771D01*
X005333Y002829D01*
X005612Y002829D01*
X005612Y003056D01*
X005602Y003094D01*
X005582Y003128D01*
X005554Y003156D01*
X005520Y003176D01*
X005482Y003186D01*
X005462Y003186D01*
X005480Y003204D01*
X005480Y003530D01*
X005526Y003530D01*
X005590Y003594D01*
X005590Y003740D01*
X005716Y003740D01*
X005854Y003878D01*
X005854Y003843D01*
X005918Y003778D01*
X006040Y003778D01*
X006040Y003772D01*
X005918Y003772D01*
X005854Y003707D01*
X005854Y003301D01*
X005918Y003237D01*
X006482Y003237D01*
X006546Y003301D01*
X006546Y003707D01*
X006482Y003772D01*
X006360Y003772D01*
X006360Y003778D01*
X006482Y003778D01*
X006546Y003843D01*
X006546Y003886D01*
X006604Y003886D01*
X006604Y003843D01*
X006668Y003778D01*
X007220Y003778D01*
X007220Y002745D01*
X006720Y002245D01*
X006720Y001824D01*
X006678Y001807D01*
X006543Y001672D01*
X006470Y001495D01*
X006470Y001305D01*
X006543Y001128D01*
X006678Y000993D01*
X006855Y000920D01*
X007045Y000920D01*
X007222Y000993D01*
X007357Y001128D01*
X007430Y001305D01*
X007430Y001495D01*
X007357Y001672D01*
X007222Y001807D01*
X007180Y001824D01*
X007180Y002055D01*
X007545Y002420D01*
X007610Y002485D01*
X007610Y001150D01*
X007603Y001074D01*
X007544Y000933D01*
X007437Y000826D01*
X007296Y000767D01*
X007220Y000760D01*
X005404Y000760D01*
X005400Y000756D01*
X005400Y001100D01*
X005000Y001100D01*
X005000Y001200D01*
X004900Y001200D01*
X004900Y002200D01*
X004630Y002200D01*
X004592Y002190D01*
X004558Y002170D01*
X004530Y002142D01*
X004510Y002108D01*
X004500Y002070D01*
X004500Y001200D01*
X004900Y001200D01*
X004900Y001100D01*
X004500Y001100D01*
X004500Y000260D01*
X003400Y000260D01*
X003400Y001100D01*
X003000Y001100D01*
X003000Y001200D01*
X002900Y001200D01*
X002900Y002200D01*
X002630Y002200D01*
X002592Y002190D01*
X002558Y002170D01*
X002530Y002142D01*
X002510Y002108D01*
X002500Y002070D01*
X002500Y001200D01*
X002900Y001200D01*
X002900Y001100D01*
X002500Y001100D01*
X002500Y000756D01*
X002496Y000760D01*
X000700Y000760D01*
X000624Y000767D01*
X000483Y000826D01*
X000376Y000933D01*
X000374Y000938D02*
X000811Y000938D01*
X000635Y001037D02*
X000333Y001037D01*
X000311Y001135D02*
X000540Y001135D01*
X000499Y001234D02*
X000310Y001234D01*
X000310Y001332D02*
X000470Y001332D01*
X000470Y001431D02*
X000310Y001431D01*
X000310Y001529D02*
X000484Y001529D01*
X000525Y001628D02*
X000310Y001628D01*
X000310Y001726D02*
X000597Y001726D01*
X000680Y001825D02*
X000310Y001825D01*
X000310Y001923D02*
X000680Y001923D01*
X000680Y002022D02*
X000310Y002022D01*
X000310Y002120D02*
X000680Y002120D01*
X000680Y002219D02*
X000310Y002219D01*
X000310Y002317D02*
X000680Y002317D01*
X000680Y002416D02*
X000310Y002416D01*
X000310Y002514D02*
X000705Y002514D01*
X000781Y002613D02*
X000310Y002613D01*
X000310Y002711D02*
X000879Y002711D01*
X000978Y002810D02*
X000310Y002810D01*
X000310Y002908D02*
X001117Y002908D01*
X001249Y002317D02*
X006792Y002317D01*
X006720Y002219D02*
X001220Y002219D01*
X001220Y002120D02*
X002517Y002120D01*
X002500Y002022D02*
X001220Y002022D01*
X001220Y001923D02*
X002500Y001923D01*
X002500Y001825D02*
X002250Y001825D01*
X002223Y001845D02*
X002289Y001797D01*
X002347Y001739D01*
X002395Y001673D01*
X002432Y001600D01*
X002457Y001522D01*
X002469Y001450D01*
X002000Y001450D01*
X001900Y001450D01*
X001900Y001919D01*
X001828Y001907D01*
X001750Y001882D01*
X001677Y001845D01*
X001611Y001797D01*
X001553Y001739D01*
X001505Y001673D01*
X001468Y001600D01*
X001443Y001522D01*
X001431Y001450D01*
X001900Y001450D01*
X001900Y001350D01*
X001431Y001350D01*
X001443Y001278D01*
X001468Y001200D01*
X001505Y001127D01*
X001553Y001061D01*
X001611Y001003D01*
X001677Y000955D01*
X001750Y000918D01*
X001828Y000893D01*
X001900Y000881D01*
X001900Y001350D01*
X002000Y001350D01*
X002000Y001450D01*
X002000Y001919D01*
X002072Y001907D01*
X002150Y001882D01*
X002223Y001845D01*
X002356Y001726D02*
X002500Y001726D01*
X002500Y001628D02*
X002418Y001628D01*
X002455Y001529D02*
X002500Y001529D01*
X002500Y001431D02*
X002000Y001431D01*
X002000Y001350D02*
X002469Y001350D01*
X002457Y001278D01*
X002432Y001200D01*
X002395Y001127D01*
X002347Y001061D01*
X002289Y001003D01*
X002223Y000955D01*
X002150Y000918D01*
X002072Y000893D01*
X002000Y000881D01*
X002000Y001350D01*
X002000Y001332D02*
X001900Y001332D01*
X001900Y001234D02*
X002000Y001234D01*
X002000Y001135D02*
X001900Y001135D01*
X001900Y001037D02*
X002000Y001037D01*
X002000Y000938D02*
X001900Y000938D01*
X001711Y000938D02*
X001089Y000938D01*
X001265Y001037D02*
X001578Y001037D01*
X001501Y001135D02*
X001360Y001135D01*
X001401Y001234D02*
X001457Y001234D01*
X001434Y001332D02*
X001430Y001332D01*
X001430Y001431D02*
X001900Y001431D01*
X001900Y001529D02*
X002000Y001529D01*
X002000Y001628D02*
X001900Y001628D01*
X001900Y001726D02*
X002000Y001726D01*
X002000Y001825D02*
X001900Y001825D01*
X001694Y002416D02*
X005121Y002416D01*
X005127Y002414D02*
X005089Y002424D01*
X005055Y002444D01*
X005027Y002472D01*
X005007Y002506D01*
X004997Y002544D01*
X004997Y002771D01*
X005276Y002771D01*
X005276Y002414D01*
X005127Y002414D01*
X005276Y002416D02*
X005333Y002416D01*
X005333Y002514D02*
X005276Y002514D01*
X005276Y002613D02*
X005333Y002613D01*
X005333Y002711D02*
X005276Y002711D01*
X005276Y002810D02*
X004886Y002810D01*
X004863Y002711D02*
X004997Y002711D01*
X004997Y002613D02*
X004863Y002613D01*
X004859Y002514D02*
X005005Y002514D01*
X005000Y002200D02*
X005000Y001200D01*
X005400Y001200D01*
X005400Y002070D01*
X005390Y002108D01*
X005370Y002142D01*
X005342Y002170D01*
X005308Y002190D01*
X005270Y002200D01*
X005000Y002200D01*
X005000Y002120D02*
X004900Y002120D01*
X004900Y002022D02*
X005000Y002022D01*
X005000Y001923D02*
X004900Y001923D01*
X004900Y001825D02*
X005000Y001825D01*
X005000Y001726D02*
X004900Y001726D01*
X004900Y001628D02*
X005000Y001628D01*
X005000Y001529D02*
X004900Y001529D01*
X004900Y001431D02*
X005000Y001431D01*
X005000Y001332D02*
X004900Y001332D01*
X004900Y001234D02*
X005000Y001234D01*
X005000Y001135D02*
X005501Y001135D01*
X005505Y001127D02*
X005468Y001200D01*
X005443Y001278D01*
X005431Y001350D01*
X005900Y001350D01*
X005900Y001450D01*
X005900Y001919D01*
X005828Y001907D01*
X005750Y001882D01*
X005677Y001845D01*
X005611Y001797D01*
X005553Y001739D01*
X005505Y001673D01*
X005468Y001600D01*
X005443Y001522D01*
X005431Y001450D01*
X005900Y001450D01*
X006000Y001450D01*
X006000Y001919D01*
X006072Y001907D01*
X006150Y001882D01*
X006223Y001845D01*
X006289Y001797D01*
X006347Y001739D01*
X006395Y001673D01*
X006432Y001600D01*
X006457Y001522D01*
X006469Y001450D01*
X006000Y001450D01*
X006000Y001350D01*
X006469Y001350D01*
X006457Y001278D01*
X006432Y001200D01*
X006395Y001127D01*
X006347Y001061D01*
X006289Y001003D01*
X006223Y000955D01*
X006150Y000918D01*
X006072Y000893D01*
X006000Y000881D01*
X006000Y001350D01*
X005900Y001350D01*
X005900Y000881D01*
X005828Y000893D01*
X005750Y000918D01*
X005677Y000955D01*
X005611Y001003D01*
X005553Y001061D01*
X005505Y001127D01*
X005578Y001037D02*
X005400Y001037D01*
X005400Y000938D02*
X005711Y000938D01*
X005900Y000938D02*
X006000Y000938D01*
X006000Y001037D02*
X005900Y001037D01*
X005900Y001135D02*
X006000Y001135D01*
X006000Y001234D02*
X005900Y001234D01*
X005900Y001332D02*
X006000Y001332D01*
X006000Y001431D02*
X006470Y001431D01*
X006484Y001529D02*
X006455Y001529D01*
X006418Y001628D02*
X006525Y001628D01*
X006597Y001726D02*
X006356Y001726D01*
X006250Y001825D02*
X006720Y001825D01*
X006720Y001923D02*
X005400Y001923D01*
X005400Y001825D02*
X005650Y001825D01*
X005544Y001726D02*
X005400Y001726D01*
X005400Y001628D02*
X005482Y001628D01*
X005445Y001529D02*
X005400Y001529D01*
X005400Y001431D02*
X005900Y001431D01*
X005900Y001529D02*
X006000Y001529D01*
X006000Y001628D02*
X005900Y001628D01*
X005900Y001726D02*
X006000Y001726D01*
X006000Y001825D02*
X005900Y001825D01*
X005944Y002488D02*
X005906Y002498D01*
X005872Y002518D01*
X005844Y002546D01*
X005824Y002580D01*
X005814Y002618D01*
X005814Y002767D01*
X006171Y002767D01*
X006171Y002824D01*
X005814Y002824D01*
X005814Y002973D01*
X005824Y003011D01*
X005844Y003045D01*
X005872Y003073D01*
X005906Y003093D01*
X005944Y003103D01*
X006171Y003103D01*
X006171Y002824D01*
X006229Y002824D01*
X006586Y002824D01*
X006586Y002973D01*
X006576Y003011D01*
X006556Y003045D01*
X006528Y003073D01*
X006494Y003093D01*
X006456Y003103D01*
X006229Y003103D01*
X006229Y002824D01*
X006229Y002767D01*
X006586Y002767D01*
X006586Y002618D01*
X006576Y002580D01*
X006556Y002546D01*
X006528Y002518D01*
X006494Y002498D01*
X006456Y002488D01*
X006229Y002488D01*
X006229Y002767D01*
X006171Y002767D01*
X006171Y002488D01*
X005944Y002488D01*
X005879Y002514D02*
X005604Y002514D01*
X005612Y002613D02*
X005815Y002613D01*
X005814Y002711D02*
X005612Y002711D01*
X005612Y002908D02*
X005814Y002908D01*
X005823Y003007D02*
X005612Y003007D01*
X005595Y003105D02*
X007220Y003105D01*
X007220Y003007D02*
X006577Y003007D01*
X006586Y002908D02*
X007220Y002908D01*
X007220Y002810D02*
X006229Y002810D01*
X006171Y002810D02*
X005333Y002810D01*
X005250Y003200D02*
X005050Y003200D01*
X004800Y002950D01*
X004746Y002950D01*
X004596Y002800D01*
X004770Y003146D02*
X004770Y003497D01*
X004782Y003490D01*
X004820Y003480D01*
X004945Y003480D01*
X004945Y003895D01*
X004955Y003895D01*
X004955Y003480D01*
X005080Y003480D01*
X005118Y003490D01*
X005152Y003510D01*
X005160Y003518D01*
X005160Y003360D01*
X004984Y003360D01*
X004770Y003146D01*
X004770Y003204D02*
X004827Y003204D01*
X004770Y003302D02*
X004926Y003302D01*
X004945Y003499D02*
X004955Y003499D01*
X004945Y003598D02*
X004955Y003598D01*
X004945Y003696D02*
X004955Y003696D01*
X004945Y003795D02*
X004955Y003795D01*
X004945Y003893D02*
X004955Y003893D01*
X004945Y003992D02*
X004955Y003992D01*
X004945Y004090D02*
X004955Y004090D01*
X004945Y004189D02*
X004955Y004189D01*
X004945Y004287D02*
X004955Y004287D01*
X004811Y004524D02*
X004845Y004544D01*
X004873Y004572D01*
X004893Y004606D01*
X004903Y004644D01*
X004903Y004871D01*
X004624Y004871D01*
X004624Y004514D01*
X004773Y004514D01*
X004811Y004524D01*
X004879Y004583D02*
X005073Y004583D01*
X005037Y004681D02*
X004903Y004681D01*
X004903Y004780D02*
X005037Y004780D01*
X005037Y004878D02*
X004624Y004878D01*
X004624Y004871D02*
X004624Y004929D01*
X004567Y004929D01*
X004567Y005286D01*
X004418Y005286D01*
X004380Y005276D01*
X004346Y005256D01*
X004318Y005228D01*
X004298Y005194D01*
X004288Y005156D01*
X004288Y004929D01*
X004567Y004929D01*
X004567Y004871D01*
X004624Y004871D01*
X004567Y004871D02*
X004567Y004514D01*
X004418Y004514D01*
X004380Y004524D01*
X004346Y004544D01*
X004318Y004572D01*
X004298Y004606D01*
X004288Y004644D01*
X004288Y004871D01*
X004567Y004871D01*
X004567Y004878D02*
X004072Y004878D01*
X004072Y004977D02*
X004288Y004977D01*
X004288Y005075D02*
X004072Y005075D01*
X004072Y005174D02*
X004293Y005174D01*
X004373Y005272D02*
X004167Y005272D01*
X004213Y005371D02*
X006995Y005371D01*
X006970Y005272D02*
X004818Y005272D01*
X004811Y005276D02*
X004773Y005286D01*
X004624Y005286D01*
X004624Y004929D01*
X004903Y004929D01*
X004903Y005156D01*
X004893Y005194D01*
X004873Y005228D01*
X004845Y005256D01*
X004811Y005276D01*
X004898Y005174D02*
X005037Y005174D01*
X005037Y005075D02*
X004903Y005075D01*
X004903Y004977D02*
X005037Y004977D01*
X005134Y004484D02*
X003940Y004484D01*
X003940Y004583D02*
X004312Y004583D01*
X004288Y004681D02*
X003892Y004681D01*
X003940Y004090D02*
X004310Y004090D01*
X004273Y003992D02*
X003940Y003992D01*
X003893Y003893D02*
X004270Y003893D01*
X004390Y003499D02*
X003940Y003499D01*
X003940Y003401D02*
X004390Y003401D01*
X004390Y003302D02*
X003940Y003302D01*
X003940Y003204D02*
X004390Y003204D01*
X004351Y003105D02*
X003162Y003105D01*
X003063Y003007D02*
X004328Y003007D01*
X004328Y002908D02*
X002965Y002908D01*
X002866Y002810D02*
X004328Y002810D01*
X004328Y002711D02*
X002768Y002711D01*
X002700Y002643D02*
X002700Y002643D01*
X002669Y002613D02*
X004328Y002613D01*
X004332Y002514D02*
X001800Y002514D01*
X001650Y001825D02*
X001220Y001825D01*
X001303Y001726D02*
X001544Y001726D01*
X001482Y001628D02*
X001375Y001628D01*
X001416Y001529D02*
X001445Y001529D01*
X001362Y003007D02*
X000310Y003007D01*
X000310Y003105D02*
X002398Y003105D01*
X002460Y003204D02*
X000310Y003204D01*
X000310Y003302D02*
X001354Y003302D01*
X001354Y003301D02*
X001418Y003237D01*
X001982Y003237D01*
X002046Y003301D01*
X002046Y003707D01*
X001982Y003772D01*
X001870Y003772D01*
X001870Y003780D01*
X001970Y003880D01*
X002070Y003980D01*
X002070Y004528D01*
X002232Y004528D01*
X002296Y004593D01*
X002296Y004626D01*
X002316Y004626D01*
X002335Y004644D01*
X002360Y004651D01*
X002383Y004692D01*
X002416Y004725D01*
X002416Y004751D01*
X002566Y005020D01*
X002595Y005020D01*
X002730Y005155D01*
X002730Y005345D01*
X002595Y005480D01*
X002405Y005480D01*
X002336Y005411D01*
X002336Y005476D01*
X001979Y005476D01*
X001979Y005197D01*
X002206Y005197D01*
X002244Y005207D01*
X002270Y005222D01*
X002270Y005187D01*
X002201Y005063D01*
X001668Y005063D01*
X001604Y004999D01*
X001604Y004593D01*
X001668Y004528D01*
X001730Y004528D01*
X001730Y004120D01*
X001530Y003920D01*
X001530Y003772D01*
X001418Y003772D01*
X001354Y003707D01*
X001354Y003301D01*
X001354Y003401D02*
X000310Y003401D01*
X000310Y003499D02*
X001354Y003499D01*
X001354Y003598D02*
X000877Y003598D01*
X000836Y003584D02*
X000923Y003612D01*
X001004Y003654D01*
X001078Y003708D01*
X001142Y003772D01*
X001196Y003846D01*
X001238Y003927D01*
X001266Y004014D01*
X001280Y004104D01*
X001280Y004131D01*
X000719Y004131D01*
X000719Y003570D01*
X000746Y003570D01*
X000836Y003584D01*
X000719Y003598D02*
X000681Y003598D01*
X000681Y003696D02*
X000719Y003696D01*
X000719Y003795D02*
X000681Y003795D01*
X000681Y003893D02*
X000719Y003893D01*
X000719Y003992D02*
X000681Y003992D01*
X000681Y004090D02*
X000719Y004090D01*
X000523Y003598D02*
X000310Y003598D01*
X000310Y003696D02*
X000338Y003696D01*
X000979Y004681D02*
X001604Y004681D01*
X001604Y004780D02*
X001093Y004780D01*
X001172Y004878D02*
X001604Y004878D01*
X001604Y004977D02*
X001213Y004977D01*
X001240Y005075D02*
X002207Y005075D01*
X002262Y005174D02*
X001240Y005174D01*
X001234Y005272D02*
X001584Y005272D01*
X001564Y005371D02*
X001193Y005371D01*
X001145Y005469D02*
X001564Y005469D01*
X001564Y005568D02*
X001046Y005568D01*
X001021Y005666D02*
X001564Y005666D01*
X001604Y005765D02*
X001135Y005765D01*
X001205Y005863D02*
X001611Y005863D01*
X001650Y006050D02*
X001650Y006350D01*
X000800Y007200D01*
X000800Y007800D01*
X000750Y007900D01*
X000640Y007538D02*
X000310Y007538D01*
X000310Y007439D02*
X000640Y007439D01*
X000640Y007341D02*
X000310Y007341D01*
X000310Y007242D02*
X000640Y007242D01*
X000640Y007144D02*
X000310Y007144D01*
X000310Y007045D02*
X000729Y007045D01*
X000827Y006947D02*
X000310Y006947D01*
X000310Y006848D02*
X000926Y006848D01*
X001024Y006750D02*
X000310Y006750D01*
X000310Y006651D02*
X000406Y006651D01*
X000681Y006651D02*
X000719Y006651D01*
X000719Y006730D02*
X000719Y006169D01*
X001280Y006169D01*
X001280Y006196D01*
X001266Y006286D01*
X001238Y006373D01*
X001196Y006454D01*
X001320Y006454D01*
X001243Y006356D02*
X001418Y006356D01*
X001490Y006257D02*
X001270Y006257D01*
X001273Y006060D02*
X001490Y006060D01*
X001490Y006159D02*
X000719Y006159D01*
X000719Y006257D02*
X000681Y006257D01*
X000681Y006356D02*
X000719Y006356D01*
X000719Y006454D02*
X000681Y006454D01*
X000681Y006553D02*
X000719Y006553D01*
X000719Y006730D02*
X000746Y006730D01*
X000836Y006716D01*
X000923Y006688D01*
X001004Y006646D01*
X001078Y006592D01*
X001142Y006528D01*
X001196Y006454D01*
X001221Y006553D02*
X001118Y006553D01*
X001123Y006651D02*
X000994Y006651D01*
X001249Y005962D02*
X001512Y005962D01*
X001650Y006050D02*
X001800Y005900D01*
X002250Y005900D01*
X002500Y005650D01*
X003200Y005650D01*
X003413Y005863D01*
X003413Y006210D01*
X003413Y006463D01*
X003850Y006900D01*
X004450Y006900D01*
X004285Y006740D02*
X004355Y006670D01*
X004545Y006670D01*
X004680Y006805D01*
X004680Y006995D01*
X004545Y007130D01*
X004355Y007130D01*
X004285Y007060D01*
X003784Y007060D01*
X003690Y006966D01*
X003294Y006570D01*
X003257Y006570D01*
X003255Y006568D01*
X003253Y006570D01*
X002942Y006570D01*
X002878Y006506D01*
X002878Y006410D01*
X002565Y006410D01*
X002495Y006480D01*
X002305Y006480D01*
X002170Y006345D01*
X002170Y006155D01*
X002265Y006060D01*
X001866Y006060D01*
X002265Y006060D01*
X002170Y006159D02*
X001810Y006159D01*
X001810Y006116D02*
X001810Y006416D01*
X001656Y006570D01*
X001795Y006570D01*
X001865Y006640D01*
X002152Y006640D01*
X002214Y006578D01*
X002806Y006578D01*
X002870Y006642D01*
X002870Y006953D01*
X002868Y006955D01*
X002870Y006957D01*
X002870Y007240D01*
X003035Y007240D01*
X003105Y007170D01*
X003295Y007170D01*
X003430Y007305D01*
X003430Y007495D01*
X003295Y007630D01*
X003105Y007630D01*
X003035Y007560D01*
X002870Y007560D01*
X002870Y007583D01*
X002868Y007585D01*
X002870Y007587D01*
X002870Y007898D01*
X002868Y007900D01*
X002870Y007902D01*
X002870Y008213D01*
X002868Y008215D01*
X002870Y008217D01*
X002870Y008528D01*
X002868Y008530D01*
X002870Y008532D01*
X002870Y008843D01*
X002868Y008845D01*
X002870Y008847D01*
X002870Y009004D01*
X003890Y007984D01*
X003984Y007890D01*
X005530Y007890D01*
X005530Y007587D01*
X005532Y007585D01*
X005530Y007583D01*
X005530Y007272D01*
X005532Y007270D01*
X005530Y007268D01*
X005530Y006957D01*
X005532Y006955D01*
X005530Y006953D01*
X005530Y006642D01*
X005594Y006578D01*
X006186Y006578D01*
X006188Y006580D01*
X006590Y006580D01*
X006590Y006354D01*
X006654Y006290D01*
X007610Y006290D01*
X007610Y006260D01*
X006654Y006260D01*
X006590Y006196D01*
X006590Y006070D01*
X005683Y006070D01*
X005522Y006230D01*
X005522Y006506D01*
X005458Y006570D01*
X005147Y006570D01*
X005145Y006568D01*
X005143Y006570D01*
X004832Y006570D01*
X004830Y006568D01*
X004828Y006570D01*
X004570Y006570D01*
X004560Y006580D01*
X004525Y006600D01*
X004487Y006610D01*
X004362Y006610D01*
X004362Y006215D01*
X004352Y006215D01*
X004352Y006610D01*
X004228Y006610D01*
X004190Y006600D01*
X004155Y006580D01*
X004145Y006570D01*
X003887Y006570D01*
X003885Y006568D01*
X003883Y006570D01*
X003746Y006570D01*
X003916Y006740D01*
X004285Y006740D01*
X004352Y006553D02*
X004362Y006553D01*
X004352Y006454D02*
X004362Y006454D01*
X004352Y006356D02*
X004362Y006356D01*
X004352Y006257D02*
X004362Y006257D01*
X004352Y006159D02*
X004362Y006159D01*
X004352Y006060D02*
X004362Y006060D01*
X004352Y005962D02*
X004362Y005962D01*
X004352Y005863D02*
X004362Y005863D01*
X004213Y005765D02*
X004789Y005765D01*
X004770Y005666D02*
X004213Y005666D01*
X004213Y005568D02*
X004770Y005568D01*
X004856Y005469D02*
X004213Y005469D01*
X004288Y004780D02*
X003321Y004780D01*
X003399Y004878D02*
X003537Y004878D01*
X003537Y004977D02*
X003403Y004977D01*
X003403Y005075D02*
X003537Y005075D01*
X003537Y005174D02*
X003124Y005174D01*
X003067Y005174D02*
X002730Y005174D01*
X002788Y005121D02*
X002788Y004894D01*
X002798Y004856D01*
X002818Y004822D01*
X002846Y004794D01*
X002880Y004774D01*
X002918Y004764D01*
X003067Y004764D01*
X003067Y005121D01*
X002788Y005121D01*
X002788Y005075D02*
X002650Y005075D01*
X002542Y004977D02*
X002788Y004977D01*
X002792Y004878D02*
X002487Y004878D01*
X002431Y004780D02*
X002871Y004780D01*
X002788Y005272D02*
X002730Y005272D01*
X002705Y005371D02*
X002788Y005371D01*
X002813Y005469D02*
X002606Y005469D01*
X002394Y005469D02*
X002336Y005469D01*
X002336Y005568D02*
X002356Y005568D01*
X002400Y006250D02*
X003058Y006250D01*
X003098Y006210D01*
X002925Y006553D02*
X001674Y006553D01*
X001700Y006800D02*
X002508Y006800D01*
X002510Y006798D01*
X002497Y007100D02*
X002510Y007113D01*
X002497Y007100D02*
X002250Y007100D01*
X002100Y007250D01*
X001950Y007250D01*
X001850Y007350D01*
X001850Y008150D01*
X001350Y008650D01*
X000750Y008650D01*
X000800Y009350D02*
X000800Y009450D01*
X000700Y009450D01*
X000700Y009800D01*
X000310Y009800D01*
X000310Y011776D01*
X000394Y011692D01*
X000540Y011632D01*
X000540Y010834D01*
X000634Y010740D01*
X000684Y010690D01*
X001434Y010690D01*
X001970Y010154D01*
X001970Y010005D01*
X002105Y009870D01*
X002295Y009870D01*
X002430Y010005D01*
X002430Y010195D01*
X002295Y010330D01*
X002246Y010330D01*
X001666Y010910D01*
X002135Y010910D01*
X002020Y010795D01*
X002020Y010605D01*
X002155Y010470D01*
X002345Y010470D01*
X002374Y010499D01*
X002440Y010434D01*
X002440Y009734D01*
X002494Y009680D01*
X002305Y009680D01*
X002170Y009545D01*
X002170Y009355D01*
X002302Y009222D01*
X002214Y009222D01*
X002150Y009158D01*
X002150Y008847D01*
X002152Y008845D01*
X002150Y008843D01*
X002150Y008676D01*
X001860Y008966D01*
X001860Y010116D01*
X001766Y010210D01*
X001530Y010446D01*
X001530Y010545D01*
X001395Y010680D01*
X001205Y010680D01*
X001070Y010545D01*
X001070Y010355D01*
X001205Y010220D01*
X001304Y010220D01*
X001540Y009984D01*
X001540Y008834D01*
X001634Y008740D01*
X001940Y008434D01*
X001940Y008286D01*
X001916Y008310D01*
X001510Y008716D01*
X001510Y008716D01*
X001416Y008810D01*
X001360Y008810D01*
X001360Y008946D01*
X001298Y009008D01*
X001308Y009010D01*
X001342Y009030D01*
X001370Y009058D01*
X001390Y009092D01*
X001400Y009130D01*
X001400Y009350D01*
X000800Y009350D01*
X000800Y009409D02*
X001540Y009409D01*
X001540Y009311D02*
X001400Y009311D01*
X001400Y009212D02*
X001540Y009212D01*
X001540Y009114D02*
X001396Y009114D01*
X001316Y009015D02*
X001540Y009015D01*
X001540Y008917D02*
X001360Y008917D01*
X001360Y008818D02*
X001556Y008818D01*
X001507Y008720D02*
X001654Y008720D01*
X001605Y008621D02*
X001753Y008621D01*
X001704Y008523D02*
X001851Y008523D01*
X001802Y008424D02*
X001940Y008424D01*
X001940Y008326D02*
X001901Y008326D01*
X001916Y008310D02*
X001916Y008310D01*
X002100Y008500D02*
X001700Y008900D01*
X001700Y010050D01*
X001300Y010450D01*
X001327Y010197D02*
X000310Y010197D01*
X000310Y010099D02*
X001425Y010099D01*
X001308Y009790D02*
X001270Y009800D01*
X000800Y009800D01*
X000800Y009450D01*
X001400Y009450D01*
X001400Y009670D01*
X001390Y009708D01*
X001370Y009742D01*
X001342Y009770D01*
X001308Y009790D01*
X001391Y009705D02*
X001540Y009705D01*
X001540Y009803D02*
X000310Y009803D01*
X000310Y009902D02*
X001540Y009902D01*
X001524Y010000D02*
X000310Y010000D01*
X000310Y010296D02*
X001129Y010296D01*
X001070Y010394D02*
X000310Y010394D01*
X000310Y010493D02*
X001070Y010493D01*
X001116Y010591D02*
X000310Y010591D01*
X000310Y010690D02*
X001434Y010690D01*
X001484Y010591D02*
X001533Y010591D01*
X001530Y010493D02*
X001631Y010493D01*
X001582Y010394D02*
X001730Y010394D01*
X001681Y010296D02*
X001828Y010296D01*
X001766Y010210D02*
X001766Y010210D01*
X001779Y010197D02*
X001927Y010197D01*
X001970Y010099D02*
X001860Y010099D01*
X001860Y010000D02*
X001975Y010000D01*
X002073Y009902D02*
X001860Y009902D01*
X001860Y009803D02*
X002440Y009803D01*
X002440Y009902D02*
X002327Y009902D01*
X002425Y010000D02*
X002440Y010000D01*
X002430Y010099D02*
X002440Y010099D01*
X002428Y010197D02*
X002440Y010197D01*
X002440Y010296D02*
X002330Y010296D01*
X002440Y010394D02*
X002182Y010394D01*
X002132Y010493D02*
X002084Y010493D01*
X002034Y010591D02*
X001985Y010591D01*
X002020Y010690D02*
X001887Y010690D01*
X001788Y010788D02*
X002020Y010788D01*
X002111Y010887D02*
X001690Y010887D01*
X001545Y011010D02*
X000860Y011010D01*
X000860Y011632D01*
X001006Y011692D01*
X001158Y011844D01*
X001240Y012043D01*
X001240Y012257D01*
X001158Y012456D01*
X001006Y012608D01*
X000904Y012650D01*
X001006Y012692D01*
X001158Y012844D01*
X001225Y013006D01*
X001290Y013071D01*
X001290Y013071D01*
X001429Y013210D01*
X001540Y013321D01*
X001540Y014810D01*
X001554Y014810D01*
X001554Y014443D01*
X001618Y014378D01*
X001740Y014378D01*
X001740Y012615D01*
X001670Y012545D01*
X001670Y012355D01*
X001805Y012220D01*
X001995Y012220D01*
X002130Y012355D01*
X002130Y012545D01*
X002060Y012615D01*
X002060Y014378D01*
X002182Y014378D01*
X002246Y014443D01*
X002246Y014810D01*
X002733Y014810D01*
X002881Y014958D01*
X002951Y015028D01*
X003232Y015028D01*
X003296Y015093D01*
X003296Y015373D01*
X003783Y015860D01*
X003785Y015860D01*
X003670Y015745D01*
X003670Y015555D01*
X003805Y015420D01*
X003890Y015420D01*
X003961Y015348D01*
X003961Y015166D01*
X003958Y015166D01*
X003948Y015176D01*
X003913Y015195D01*
X003875Y015206D01*
X003737Y015206D01*
X003737Y014720D01*
X003699Y014720D01*
X003699Y015206D01*
X003560Y015206D01*
X003522Y015195D01*
X003488Y015176D01*
X003460Y015148D01*
X003440Y015113D01*
X003430Y015075D01*
X003430Y014720D01*
X003699Y014720D01*
X003699Y014682D01*
X003430Y014682D01*
X003430Y014327D01*
X003440Y014289D01*
X003450Y014272D01*
X003168Y014272D01*
X003104Y014207D01*
X003104Y014191D01*
X002750Y014191D01*
X002750Y014291D01*
X002650Y014291D01*
X002650Y014627D01*
X002405Y014627D01*
X002367Y014617D01*
X002332Y014597D01*
X002304Y014569D01*
X002285Y014535D01*
X002274Y014497D01*
X002274Y014291D01*
X002650Y014291D01*
X002650Y014191D01*
X002274Y014191D01*
X002274Y013985D01*
X002285Y013946D01*
X002304Y013912D01*
X002332Y013884D01*
X002367Y013865D01*
X002405Y013854D01*
X002650Y013854D01*
X002650Y014191D01*
X002750Y014191D01*
X002750Y013854D01*
X002864Y013854D01*
X002730Y013720D01*
X002730Y013406D01*
X002379Y013406D01*
X002314Y013341D01*
X002314Y012778D01*
X002379Y012713D01*
X003021Y012713D01*
X003086Y012778D01*
X003086Y013341D01*
X003070Y013357D01*
X003070Y013580D01*
X003170Y013680D01*
X003270Y013680D01*
X003327Y013737D01*
X003732Y013737D01*
X003796Y013801D01*
X003796Y014197D01*
X003875Y014197D01*
X003913Y014207D01*
X003948Y014227D01*
X003958Y014237D01*
X004334Y014237D01*
X004348Y014250D01*
X004361Y014237D01*
X004767Y014237D01*
X004781Y014250D01*
X004794Y014237D01*
X005200Y014237D01*
X005214Y014250D01*
X005227Y014237D01*
X005604Y014237D01*
X005614Y014227D01*
X005628Y014219D01*
X005530Y014120D01*
X005430Y014020D01*
X005430Y013996D01*
X005351Y013996D01*
X005287Y013932D01*
X005287Y013368D01*
X005351Y013304D01*
X005757Y013304D01*
X005802Y013349D01*
X005818Y013322D01*
X005846Y013294D01*
X005880Y013274D01*
X005918Y013264D01*
X006067Y013264D01*
X006067Y013621D01*
X006124Y013621D01*
X006124Y013264D01*
X006273Y013264D01*
X006311Y013274D01*
X006345Y013294D01*
X006373Y013322D01*
X006393Y013356D01*
X006403Y013394D01*
X006403Y013621D01*
X006124Y013621D01*
X006124Y013679D01*
X006403Y013679D01*
X006403Y013906D01*
X006393Y013944D01*
X006373Y013978D01*
X006345Y014006D01*
X006314Y014024D01*
X006367Y014076D01*
X006466Y014176D01*
X006466Y014237D01*
X006500Y014237D01*
X006500Y014025D01*
X006565Y013960D01*
X006537Y013932D01*
X006537Y013368D01*
X006601Y013304D01*
X006730Y013304D01*
X006730Y013260D01*
X006672Y013202D01*
X006632Y013103D01*
X006632Y012997D01*
X006672Y012898D01*
X006748Y012822D01*
X006847Y012782D01*
X006953Y012782D01*
X007052Y012822D01*
X007128Y012898D01*
X007168Y012997D01*
X007168Y013103D01*
X007128Y013202D01*
X007070Y013260D01*
X007070Y013366D01*
X007072Y013368D01*
X007072Y013932D01*
X007030Y013974D01*
X007030Y014145D01*
X006960Y014216D01*
X006960Y014237D01*
X007326Y014237D01*
X007391Y014301D01*
X007391Y015101D01*
X007326Y015166D01*
X006960Y015166D01*
X006946Y015152D01*
X006933Y015166D01*
X006526Y015166D01*
X006513Y015152D01*
X006500Y015166D01*
X006486Y015166D01*
X006486Y015532D01*
X006375Y015644D01*
X005779Y016240D01*
X003626Y016240D01*
X003514Y016129D01*
X003296Y015911D01*
X003296Y016207D01*
X003232Y016272D01*
X003067Y016272D01*
X002999Y016340D01*
X002480Y016340D01*
X002480Y017001D01*
X002416Y017065D01*
X002084Y017065D01*
X002020Y017001D01*
X002020Y016239D01*
X002010Y016229D01*
X002010Y016071D01*
X002020Y016061D01*
X002020Y016039D01*
X002084Y015975D01*
X002106Y015975D01*
X002121Y015960D01*
X002604Y015960D01*
X002604Y015801D01*
X002668Y015737D01*
X003122Y015737D01*
X002949Y015563D01*
X002756Y015563D01*
X002379Y015940D01*
X001940Y015940D01*
X001940Y015999D01*
X001980Y016039D01*
X001980Y017001D01*
X001916Y017065D01*
X001584Y017065D01*
X001520Y017001D01*
X001520Y016039D01*
X001560Y015999D01*
X001560Y015771D01*
X001660Y015671D01*
X001709Y015622D01*
X001618Y015622D01*
X001576Y015580D01*
X001034Y015580D01*
X001006Y015608D01*
X000807Y015690D01*
X000593Y015690D01*
X000394Y015608D01*
X000310Y015524D01*
X000310Y019150D01*
X000317Y019226D01*
X000376Y019367D01*
X000483Y019474D01*
X000624Y019533D01*
X000700Y019540D01*
X002321Y019540D01*
X002546Y019633D01*
X002563Y019650D01*
X004093Y019650D01*
X004460Y019284D01*
X004920Y019018D01*
X005338Y018906D01*
X005227Y018906D01*
X005214Y018892D01*
X005200Y018906D01*
X004794Y018906D01*
X004781Y018892D01*
X004767Y018906D01*
X004361Y018906D01*
X004348Y018892D01*
X004334Y018906D01*
X003928Y018906D01*
X003915Y018892D01*
X003901Y018906D01*
X003534Y018906D01*
X003470Y018841D01*
X003470Y018041D01*
X003534Y017977D01*
X003901Y017977D01*
X003915Y017990D01*
X003928Y017977D01*
X004334Y017977D01*
X004348Y017990D01*
X004361Y017977D01*
X004767Y017977D01*
X004781Y017990D01*
X004794Y017977D01*
X005200Y017977D01*
X005214Y017990D01*
X005227Y017977D01*
X005633Y017977D01*
X005647Y017990D01*
X005660Y017977D01*
X006037Y017977D01*
X006047Y017967D01*
X006081Y017947D01*
X006119Y017937D01*
X006268Y017937D01*
X006268Y018413D01*
X006325Y018413D01*
X006325Y017937D01*
X006474Y017937D01*
X006512Y017947D01*
X006546Y017967D01*
X006556Y017977D01*
X006903Y017977D01*
X006913Y017967D01*
X006947Y017947D01*
X006985Y017937D01*
X007124Y017937D01*
X007124Y018422D01*
X007162Y018422D01*
X007162Y017937D01*
X007300Y017937D01*
X007339Y017947D01*
X007373Y017967D01*
X007401Y017995D01*
X007420Y018029D01*
X007431Y018067D01*
X007431Y018422D01*
X007162Y018422D01*
X007162Y018460D01*
X007431Y018460D01*
X007431Y018815D01*
X007420Y018854D01*
X007401Y018888D01*
X007373Y018916D01*
X007339Y018935D01*
X007300Y018946D01*
X007162Y018946D01*
X007162Y018460D01*
X007124Y018460D01*
X007124Y018946D01*
X007000Y018946D01*
X007000Y018980D01*
X006916Y019182D01*
X006761Y019336D01*
X006559Y019420D01*
X005700Y019420D01*
X005507Y019433D01*
X005134Y019533D01*
X004930Y019650D01*
X005333Y019650D01*
X005354Y019629D01*
X005354Y019629D01*
X005354Y019629D01*
X005579Y019536D01*
X007220Y019536D01*
X007296Y019529D01*
X007437Y019470D01*
X007544Y019363D01*
X007603Y019222D01*
X007610Y019146D01*
X007610Y009260D01*
X006750Y009260D01*
X006770Y009280D01*
X007270Y009280D01*
X007375Y009384D01*
X007474Y009484D01*
X007474Y009554D01*
X007507Y009554D01*
X007572Y009618D01*
X007572Y010182D01*
X007507Y010246D01*
X007101Y010246D01*
X007037Y010182D01*
X007037Y009620D01*
X006863Y009620D01*
X006863Y010182D01*
X006799Y010246D01*
X006772Y010246D01*
X006916Y010390D01*
X007035Y010390D01*
X007105Y010320D01*
X007295Y010320D01*
X007430Y010455D01*
X007430Y010645D01*
X007295Y010780D01*
X007105Y010780D01*
X007035Y010710D01*
X006784Y010710D01*
X006690Y010616D01*
X006440Y010366D01*
X006440Y010320D01*
X004330Y010320D01*
X004230Y010220D01*
X004230Y009968D01*
X004210Y009980D01*
X004172Y009990D01*
X004048Y009990D01*
X004048Y009595D01*
X004038Y009595D01*
X004038Y009990D01*
X003913Y009990D01*
X003875Y009980D01*
X003840Y009960D01*
X003830Y009950D01*
X003572Y009950D01*
X003570Y009948D01*
X003570Y009948D01*
X003570Y010480D01*
X003670Y010580D01*
X004770Y010580D01*
X005100Y010910D01*
X007291Y010910D01*
X007355Y010974D01*
X007355Y011826D01*
X007291Y011890D01*
X006224Y011890D01*
X006224Y012304D01*
X006257Y012304D01*
X006322Y012368D01*
X006322Y012932D01*
X006257Y012996D01*
X005851Y012996D01*
X005787Y012932D01*
X005787Y012368D01*
X005851Y012304D01*
X005884Y012304D01*
X005884Y011890D01*
X004838Y011890D01*
X004773Y011826D01*
X004773Y011063D01*
X004630Y010920D01*
X004072Y010920D01*
X004127Y010974D01*
X004127Y011826D01*
X004062Y011890D01*
X003970Y011890D01*
X003970Y012304D01*
X004049Y012304D01*
X004113Y012368D01*
X004113Y012932D01*
X004049Y012996D01*
X003643Y012996D01*
X003610Y012964D01*
X003610Y013028D01*
X003732Y013028D01*
X003796Y013093D01*
X003796Y013499D01*
X003732Y013563D01*
X003168Y013563D01*
X003104Y013499D01*
X003104Y013093D01*
X003168Y013028D01*
X003290Y013028D01*
X003290Y012516D01*
X003254Y012480D01*
X003155Y012480D01*
X003020Y012345D01*
X003020Y012155D01*
X003155Y012020D01*
X003345Y012020D01*
X003480Y012155D01*
X003480Y012254D01*
X003516Y012290D01*
X003586Y012360D01*
X003630Y012316D01*
X003630Y011890D01*
X001609Y011890D01*
X001545Y011826D01*
X001545Y011010D01*
X001545Y011084D02*
X000860Y011084D01*
X000860Y011182D02*
X001545Y011182D01*
X001545Y011281D02*
X000860Y011281D01*
X000860Y011379D02*
X001545Y011379D01*
X001545Y011478D02*
X000860Y011478D01*
X000860Y011576D02*
X001545Y011576D01*
X001545Y011675D02*
X000963Y011675D01*
X001087Y011773D02*
X001545Y011773D01*
X001591Y011872D02*
X001169Y011872D01*
X001210Y011970D02*
X003630Y011970D01*
X003630Y012069D02*
X003394Y012069D01*
X003480Y012167D02*
X003630Y012167D01*
X003630Y012266D02*
X003492Y012266D01*
X003450Y012450D02*
X003450Y013296D01*
X003290Y012955D02*
X003086Y012955D01*
X003086Y012857D02*
X003290Y012857D01*
X003290Y012758D02*
X003066Y012758D01*
X003086Y013054D02*
X003143Y013054D01*
X003104Y013152D02*
X003086Y013152D01*
X003086Y013251D02*
X003104Y013251D01*
X003104Y013349D02*
X003078Y013349D01*
X003070Y013448D02*
X003104Y013448D01*
X003070Y013546D02*
X003151Y013546D01*
X003135Y013645D02*
X004817Y013645D01*
X004817Y013621D02*
X004538Y013621D01*
X004538Y013394D01*
X004548Y013356D01*
X004568Y013322D01*
X004596Y013294D01*
X004630Y013274D01*
X004668Y013264D01*
X004817Y013264D01*
X004817Y013621D01*
X004874Y013621D01*
X004874Y013264D01*
X005023Y013264D01*
X005061Y013274D01*
X005095Y013294D01*
X005123Y013322D01*
X005143Y013356D01*
X005153Y013394D01*
X005153Y013621D01*
X004874Y013621D01*
X004874Y013679D01*
X004817Y013679D01*
X004817Y014036D01*
X004668Y014036D01*
X004630Y014026D01*
X004596Y014006D01*
X004568Y013978D01*
X004548Y013944D01*
X004538Y013906D01*
X004538Y013679D01*
X004817Y013679D01*
X004817Y013621D01*
X004874Y013645D02*
X005287Y013645D01*
X005287Y013743D02*
X005153Y013743D01*
X005153Y013679D02*
X005153Y013906D01*
X005143Y013944D01*
X005123Y013978D01*
X005095Y014006D01*
X005061Y014026D01*
X005023Y014036D01*
X004874Y014036D01*
X004874Y013679D01*
X005153Y013679D01*
X005153Y013546D02*
X005287Y013546D01*
X005287Y013448D02*
X005153Y013448D01*
X005139Y013349D02*
X005306Y013349D01*
X005317Y013036D02*
X005168Y013036D01*
X005130Y013026D01*
X005096Y013006D01*
X005068Y012978D01*
X005048Y012944D01*
X005038Y012906D01*
X005038Y012679D01*
X005317Y012679D01*
X005317Y013036D01*
X005374Y013036D02*
X005523Y013036D01*
X005561Y013026D01*
X005595Y013006D01*
X005623Y012978D01*
X005643Y012944D01*
X005653Y012906D01*
X005653Y012679D01*
X005374Y012679D01*
X005317Y012679D01*
X005317Y012621D01*
X005374Y012621D01*
X005374Y012264D01*
X005523Y012264D01*
X005561Y012274D01*
X005595Y012294D01*
X005623Y012322D01*
X005643Y012356D01*
X005653Y012394D01*
X005653Y012621D01*
X005374Y012621D01*
X005374Y012679D01*
X005374Y013036D01*
X005374Y012955D02*
X005317Y012955D01*
X005317Y012857D02*
X005374Y012857D01*
X005374Y012758D02*
X005317Y012758D01*
X005317Y012660D02*
X004583Y012660D01*
X004583Y012679D02*
X004862Y012679D01*
X004862Y012906D01*
X004852Y012944D01*
X004832Y012978D01*
X004804Y013006D01*
X004770Y013026D01*
X004732Y013036D01*
X004583Y013036D01*
X004583Y012679D01*
X004526Y012679D01*
X004526Y013036D01*
X004377Y013036D01*
X004339Y013026D01*
X004305Y013006D01*
X004277Y012978D01*
X004257Y012944D01*
X004247Y012906D01*
X004247Y012679D01*
X004526Y012679D01*
X004526Y012621D01*
X004583Y012621D01*
X004583Y012264D01*
X004732Y012264D01*
X004770Y012274D01*
X004804Y012294D01*
X004832Y012322D01*
X004852Y012356D01*
X004862Y012394D01*
X004862Y012621D01*
X004583Y012621D01*
X004583Y012679D01*
X004526Y012660D02*
X004113Y012660D01*
X004113Y012758D02*
X004247Y012758D01*
X004247Y012857D02*
X004113Y012857D01*
X004090Y012955D02*
X004263Y012955D01*
X004247Y012621D02*
X004247Y012394D01*
X004257Y012356D01*
X004277Y012322D01*
X004305Y012294D01*
X004339Y012274D01*
X004377Y012264D01*
X004526Y012264D01*
X004526Y012621D01*
X004247Y012621D01*
X004247Y012561D02*
X004113Y012561D01*
X004113Y012463D02*
X004247Y012463D01*
X004255Y012364D02*
X004109Y012364D01*
X004081Y011872D02*
X004819Y011872D01*
X004773Y011773D02*
X004127Y011773D01*
X004127Y011675D02*
X004773Y011675D01*
X004773Y011576D02*
X004127Y011576D01*
X004127Y011478D02*
X004773Y011478D01*
X004773Y011379D02*
X004127Y011379D01*
X004127Y011281D02*
X004773Y011281D01*
X004773Y011182D02*
X004127Y011182D01*
X004127Y011084D02*
X004773Y011084D01*
X004695Y010985D02*
X004127Y010985D01*
X004305Y010296D02*
X003570Y010296D01*
X003570Y010394D02*
X006468Y010394D01*
X006328Y009980D02*
X006328Y009618D01*
X006393Y009554D01*
X006563Y009554D01*
X006530Y009520D01*
X006330Y009320D01*
X006330Y008920D01*
X006250Y008840D01*
X006250Y008843D01*
X006248Y008845D01*
X006250Y008847D01*
X006250Y009158D01*
X006186Y009222D01*
X005594Y009222D01*
X005530Y009158D01*
X005530Y008890D01*
X004935Y008890D01*
X004895Y008930D01*
X004705Y008930D01*
X004570Y008795D01*
X004570Y008605D01*
X004655Y008520D01*
X004470Y008520D01*
X004330Y008660D01*
X004330Y008745D01*
X004195Y008880D01*
X004005Y008880D01*
X003870Y008745D01*
X003870Y008555D01*
X004005Y008420D01*
X004090Y008420D01*
X004300Y008210D01*
X004116Y008210D01*
X003096Y009230D01*
X003253Y009230D01*
X003255Y009232D01*
X003257Y009230D01*
X003568Y009230D01*
X003568Y009056D01*
X003590Y009034D01*
X003684Y008940D01*
X004416Y008940D01*
X004510Y009034D01*
X004510Y009199D01*
X004543Y009190D01*
X004667Y009190D01*
X004667Y009585D01*
X004677Y009585D01*
X004677Y009190D01*
X004802Y009190D01*
X004840Y009200D01*
X004875Y009220D01*
X004885Y009230D01*
X005143Y009230D01*
X005145Y009232D01*
X005147Y009230D01*
X005458Y009230D01*
X005522Y009294D01*
X005522Y009886D01*
X005458Y009950D01*
X005147Y009950D01*
X005145Y009948D01*
X005143Y009950D01*
X004885Y009950D01*
X004875Y009960D01*
X004840Y009980D01*
X004839Y009980D01*
X006328Y009980D01*
X006328Y009902D02*
X005506Y009902D01*
X005522Y009803D02*
X006328Y009803D01*
X006328Y009705D02*
X005522Y009705D01*
X005522Y009606D02*
X006340Y009606D01*
X006419Y009409D02*
X005522Y009409D01*
X005522Y009311D02*
X006330Y009311D01*
X006330Y009212D02*
X006196Y009212D01*
X006250Y009114D02*
X006330Y009114D01*
X006330Y009015D02*
X006250Y009015D01*
X006250Y008917D02*
X006326Y008917D01*
X006517Y009508D02*
X005522Y009508D01*
X005584Y009212D02*
X004861Y009212D01*
X004909Y008917D02*
X005530Y008917D01*
X005530Y009015D02*
X004491Y009015D01*
X004510Y009114D02*
X005530Y009114D01*
X005890Y008057D02*
X005883Y008050D01*
X004050Y008050D01*
X002800Y009300D01*
X002800Y009600D01*
X002600Y009800D01*
X002600Y010500D01*
X002400Y010700D01*
X002250Y010700D01*
X002368Y010493D02*
X002381Y010493D01*
X002200Y010150D02*
X001500Y010850D01*
X000750Y010850D01*
X000700Y010900D01*
X000700Y012150D01*
X000437Y011675D02*
X000310Y011675D01*
X000310Y011773D02*
X000313Y011773D01*
X000310Y011576D02*
X000540Y011576D01*
X000540Y011478D02*
X000310Y011478D01*
X000310Y011379D02*
X000540Y011379D01*
X000540Y011281D02*
X000310Y011281D01*
X000310Y011182D02*
X000540Y011182D01*
X000540Y011084D02*
X000310Y011084D01*
X000310Y010985D02*
X000540Y010985D01*
X000540Y010887D02*
X000310Y010887D01*
X000310Y010788D02*
X000586Y010788D01*
X000700Y009705D02*
X000800Y009705D01*
X000800Y009606D02*
X000700Y009606D01*
X000700Y009508D02*
X000800Y009508D01*
X001400Y009508D02*
X001540Y009508D01*
X001540Y009606D02*
X001400Y009606D01*
X001860Y009606D02*
X002231Y009606D01*
X002170Y009508D02*
X001860Y009508D01*
X001860Y009409D02*
X002170Y009409D01*
X002214Y009311D02*
X001860Y009311D01*
X001860Y009212D02*
X002204Y009212D01*
X002150Y009114D02*
X001860Y009114D01*
X001860Y009015D02*
X002150Y009015D01*
X002150Y008917D02*
X001910Y008917D01*
X002008Y008818D02*
X002150Y008818D01*
X002150Y008720D02*
X002107Y008720D01*
X002100Y008500D02*
X002100Y007800D01*
X002157Y007743D01*
X002510Y007743D01*
X002510Y007428D02*
X002538Y007400D01*
X003200Y007400D01*
X003367Y007242D02*
X005530Y007242D01*
X005530Y007144D02*
X002870Y007144D01*
X002870Y007045D02*
X003769Y007045D01*
X003827Y006651D02*
X005530Y006651D01*
X005530Y006750D02*
X004625Y006750D01*
X004680Y006848D02*
X005530Y006848D01*
X005530Y006947D02*
X004680Y006947D01*
X004630Y007045D02*
X005530Y007045D01*
X005530Y007341D02*
X003430Y007341D01*
X003430Y007439D02*
X005530Y007439D01*
X005530Y007538D02*
X003388Y007538D01*
X003572Y006848D02*
X002870Y006848D01*
X002870Y006750D02*
X003473Y006750D01*
X003375Y006651D02*
X002870Y006651D01*
X002878Y006454D02*
X002521Y006454D01*
X002279Y006454D02*
X001772Y006454D01*
X001810Y006356D02*
X002180Y006356D01*
X002170Y006257D02*
X001810Y006257D01*
X001810Y006116D02*
X001866Y006060D01*
X001921Y005469D02*
X001979Y005469D01*
X001979Y005371D02*
X001921Y005371D01*
X001921Y005272D02*
X001979Y005272D01*
X002070Y004484D02*
X002460Y004484D01*
X002460Y004386D02*
X002070Y004386D01*
X002070Y004287D02*
X002460Y004287D01*
X002460Y004189D02*
X002070Y004189D01*
X002070Y004090D02*
X002460Y004090D01*
X002460Y003992D02*
X002070Y003992D01*
X001983Y003893D02*
X002507Y003893D01*
X002460Y003795D02*
X001885Y003795D01*
X002046Y003696D02*
X002460Y003696D01*
X002460Y003598D02*
X002046Y003598D01*
X002046Y003499D02*
X002460Y003499D01*
X002460Y003401D02*
X002046Y003401D01*
X002046Y003302D02*
X002460Y003302D01*
X002460Y004583D02*
X002286Y004583D01*
X002376Y004681D02*
X002508Y004681D01*
X003067Y004780D02*
X003124Y004780D01*
X003124Y004878D02*
X003067Y004878D01*
X003067Y004977D02*
X003124Y004977D01*
X003124Y005075D02*
X003067Y005075D01*
X003344Y005568D02*
X003873Y005568D01*
X003873Y005666D02*
X003442Y005666D01*
X003541Y005765D02*
X003873Y005765D01*
X003574Y005469D02*
X003379Y005469D01*
X003403Y005371D02*
X003537Y005371D01*
X003537Y005272D02*
X003403Y005272D01*
X003700Y003700D02*
X004580Y003700D01*
X004770Y003401D02*
X005160Y003401D01*
X005160Y003499D02*
X005133Y003499D01*
X005320Y003270D02*
X005250Y003200D01*
X005320Y003270D02*
X005320Y003700D01*
X005320Y003570D01*
X005320Y003900D02*
X005650Y003900D01*
X005796Y004046D01*
X006200Y004046D01*
X006200Y003504D01*
X006171Y003007D02*
X006229Y003007D01*
X006229Y002908D02*
X006171Y002908D01*
X006171Y002711D02*
X006229Y002711D01*
X006229Y002613D02*
X006171Y002613D01*
X006171Y002514D02*
X006229Y002514D01*
X006521Y002514D02*
X006989Y002514D01*
X007087Y002613D02*
X006585Y002613D01*
X006586Y002711D02*
X007186Y002711D01*
X007220Y003204D02*
X005480Y003204D01*
X005480Y003302D02*
X005854Y003302D01*
X005854Y003401D02*
X005480Y003401D01*
X005480Y003499D02*
X005854Y003499D01*
X005854Y003598D02*
X005590Y003598D01*
X005590Y003696D02*
X005854Y003696D01*
X005902Y003795D02*
X005771Y003795D01*
X005572Y005075D02*
X007030Y005075D01*
X006970Y005174D02*
X005572Y005174D01*
X005507Y005765D02*
X005211Y005765D01*
X005230Y005666D02*
X006590Y005666D01*
X006627Y005568D02*
X005230Y005568D01*
X005144Y005469D02*
X007094Y005469D01*
X007306Y005469D02*
X007610Y005469D01*
X007610Y005371D02*
X007405Y005371D01*
X007430Y005272D02*
X007610Y005272D01*
X007610Y005174D02*
X007430Y005174D01*
X007370Y005075D02*
X007610Y005075D01*
X007610Y004977D02*
X007370Y004977D01*
X007370Y004878D02*
X007610Y004878D01*
X007610Y004780D02*
X007396Y004780D01*
X007494Y004681D02*
X007610Y004681D01*
X007610Y004583D02*
X007593Y004583D01*
X007220Y003696D02*
X006546Y003696D01*
X006546Y003598D02*
X007220Y003598D01*
X007220Y003499D02*
X006546Y003499D01*
X006546Y003401D02*
X007220Y003401D01*
X007220Y003302D02*
X006546Y003302D01*
X006498Y003795D02*
X006652Y003795D01*
X006950Y004046D02*
X006200Y004046D01*
X006720Y002120D02*
X005383Y002120D01*
X005400Y002022D02*
X006720Y002022D01*
X006890Y002416D02*
X005488Y002416D01*
X005434Y001332D02*
X005400Y001332D01*
X005400Y001234D02*
X005457Y001234D01*
X005400Y000840D02*
X007451Y000840D01*
X007546Y000938D02*
X007089Y000938D01*
X007265Y001037D02*
X007587Y001037D01*
X007609Y001135D02*
X007360Y001135D01*
X007401Y001234D02*
X007610Y001234D01*
X007610Y001332D02*
X007430Y001332D01*
X007430Y001431D02*
X007610Y001431D01*
X007610Y001529D02*
X007416Y001529D01*
X007375Y001628D02*
X007610Y001628D01*
X007610Y001726D02*
X007303Y001726D01*
X007245Y002120D02*
X007610Y002120D01*
X007610Y002022D02*
X007180Y002022D01*
X007180Y001923D02*
X007610Y001923D01*
X007610Y001825D02*
X007180Y001825D01*
X007344Y002219D02*
X007610Y002219D01*
X007610Y002317D02*
X007442Y002317D01*
X007541Y002416D02*
X007610Y002416D01*
X006811Y000938D02*
X006189Y000938D01*
X006322Y001037D02*
X006635Y001037D01*
X006540Y001135D02*
X006399Y001135D01*
X006443Y001234D02*
X006499Y001234D01*
X006470Y001332D02*
X006466Y001332D01*
X005134Y004386D02*
X004535Y004386D01*
X004633Y004287D02*
X004745Y004287D01*
X004624Y004583D02*
X004567Y004583D01*
X004567Y004681D02*
X004624Y004681D01*
X004624Y004780D02*
X004567Y004780D01*
X004567Y004977D02*
X004624Y004977D01*
X004624Y005075D02*
X004567Y005075D01*
X004567Y005174D02*
X004624Y005174D01*
X004624Y005272D02*
X004567Y005272D01*
X004984Y002908D02*
X004997Y002908D01*
X004517Y002120D02*
X003383Y002120D01*
X003390Y002108D02*
X003370Y002142D01*
X003342Y002170D01*
X003308Y002190D01*
X003270Y002200D01*
X003000Y002200D01*
X003000Y001200D01*
X003400Y001200D01*
X003400Y002070D01*
X003390Y002108D01*
X003400Y002022D02*
X004500Y002022D01*
X004500Y001923D02*
X003400Y001923D01*
X003400Y001825D02*
X004500Y001825D01*
X004500Y001726D02*
X003400Y001726D01*
X003400Y001628D02*
X004500Y001628D01*
X004500Y001529D02*
X003400Y001529D01*
X003400Y001431D02*
X004500Y001431D01*
X004500Y001332D02*
X003400Y001332D01*
X003400Y001234D02*
X004500Y001234D01*
X004500Y001037D02*
X003400Y001037D01*
X003400Y000938D02*
X004500Y000938D01*
X004500Y000840D02*
X003400Y000840D01*
X003400Y000741D02*
X004500Y000741D01*
X004500Y000643D02*
X003400Y000643D01*
X003400Y000544D02*
X004500Y000544D01*
X004500Y000446D02*
X003400Y000446D01*
X003400Y000347D02*
X004500Y000347D01*
X004900Y001135D02*
X003000Y001135D01*
X003000Y001234D02*
X002900Y001234D01*
X002900Y001332D02*
X003000Y001332D01*
X003000Y001431D02*
X002900Y001431D01*
X002900Y001529D02*
X003000Y001529D01*
X003000Y001628D02*
X002900Y001628D01*
X002900Y001726D02*
X003000Y001726D01*
X003000Y001825D02*
X002900Y001825D01*
X002900Y001923D02*
X003000Y001923D01*
X003000Y002022D02*
X002900Y002022D01*
X002900Y002120D02*
X003000Y002120D01*
X002900Y001135D02*
X002399Y001135D01*
X002443Y001234D02*
X002500Y001234D01*
X002500Y001332D02*
X002466Y001332D01*
X002500Y001037D02*
X002322Y001037D01*
X002189Y000938D02*
X002500Y000938D01*
X002500Y000840D02*
X000470Y000840D01*
X001062Y003696D02*
X001354Y003696D01*
X001220Y003893D02*
X001530Y003893D01*
X001530Y003795D02*
X001159Y003795D01*
X001258Y003992D02*
X001601Y003992D01*
X001700Y004090D02*
X001278Y004090D01*
X001280Y004189D02*
X001730Y004189D01*
X001730Y004287D02*
X001265Y004287D01*
X001231Y004386D02*
X001730Y004386D01*
X001730Y004484D02*
X001174Y004484D01*
X001088Y004583D02*
X001614Y004583D01*
X002870Y006947D02*
X003670Y006947D01*
X003942Y007932D02*
X002870Y007932D01*
X002870Y008030D02*
X003844Y008030D01*
X004001Y008326D02*
X004184Y008326D01*
X004099Y008227D02*
X004283Y008227D01*
X004369Y008621D02*
X004570Y008621D01*
X004570Y008720D02*
X004330Y008720D01*
X004257Y008818D02*
X004593Y008818D01*
X004691Y008917D02*
X003410Y008917D01*
X003311Y009015D02*
X003609Y009015D01*
X003568Y009114D02*
X003213Y009114D01*
X003114Y009212D02*
X003568Y009212D01*
X003508Y008818D02*
X003943Y008818D01*
X003870Y008720D02*
X003607Y008720D01*
X003705Y008621D02*
X003870Y008621D01*
X003902Y008523D02*
X003804Y008523D01*
X003902Y008424D02*
X004001Y008424D01*
X003745Y008129D02*
X002870Y008129D01*
X002870Y008227D02*
X003647Y008227D01*
X003548Y008326D02*
X002870Y008326D01*
X002870Y008424D02*
X003450Y008424D01*
X003351Y008523D02*
X002870Y008523D01*
X002870Y008621D02*
X003253Y008621D01*
X003154Y008720D02*
X002870Y008720D01*
X002870Y008818D02*
X003056Y008818D01*
X002957Y008917D02*
X002870Y008917D01*
X002510Y009002D02*
X002510Y009340D01*
X002400Y009450D01*
X002469Y009705D02*
X001860Y009705D01*
X002200Y010100D02*
X002200Y010150D01*
X002041Y012266D02*
X003020Y012266D01*
X003020Y012167D02*
X001240Y012167D01*
X001240Y012069D02*
X003106Y012069D01*
X003039Y012364D02*
X002130Y012364D01*
X002130Y012463D02*
X003137Y012463D01*
X003250Y012250D02*
X003450Y012450D01*
X003290Y012561D02*
X002114Y012561D01*
X002060Y012660D02*
X003290Y012660D01*
X003757Y013054D02*
X006632Y013054D01*
X006652Y013152D02*
X003796Y013152D01*
X003796Y013251D02*
X006721Y013251D01*
X006649Y012955D02*
X006299Y012955D01*
X006322Y012857D02*
X006714Y012857D01*
X006556Y013349D02*
X006389Y013349D01*
X006403Y013448D02*
X006537Y013448D01*
X006537Y013546D02*
X006403Y013546D01*
X006537Y013645D02*
X006124Y013645D01*
X006124Y013546D02*
X006067Y013546D01*
X006067Y013448D02*
X006124Y013448D01*
X006124Y013349D02*
X006067Y013349D01*
X005810Y012955D02*
X005637Y012955D01*
X005653Y012857D02*
X005787Y012857D01*
X005787Y012758D02*
X005653Y012758D01*
X005653Y012561D02*
X005787Y012561D01*
X005787Y012463D02*
X005653Y012463D01*
X005645Y012364D02*
X005791Y012364D01*
X005884Y012266D02*
X005529Y012266D01*
X005374Y012266D02*
X005317Y012266D01*
X005317Y012264D02*
X005317Y012621D01*
X005038Y012621D01*
X005038Y012394D01*
X005048Y012356D01*
X005068Y012322D01*
X005096Y012294D01*
X005130Y012274D01*
X005168Y012264D01*
X005317Y012264D01*
X005317Y012364D02*
X005374Y012364D01*
X005374Y012463D02*
X005317Y012463D01*
X005317Y012561D02*
X005374Y012561D01*
X005374Y012660D02*
X005787Y012660D01*
X005884Y012167D02*
X003970Y012167D01*
X003970Y012069D02*
X005884Y012069D01*
X005884Y011970D02*
X003970Y011970D01*
X003970Y012266D02*
X004371Y012266D01*
X004526Y012266D02*
X004583Y012266D01*
X004583Y012364D02*
X004526Y012364D01*
X004526Y012463D02*
X004583Y012463D01*
X004583Y012561D02*
X004526Y012561D01*
X004526Y012758D02*
X004583Y012758D01*
X004583Y012857D02*
X004526Y012857D01*
X004526Y012955D02*
X004583Y012955D01*
X004552Y013349D02*
X003796Y013349D01*
X003796Y013448D02*
X004538Y013448D01*
X004538Y013546D02*
X003749Y013546D01*
X003738Y013743D02*
X004538Y013743D01*
X004538Y013842D02*
X003796Y013842D01*
X003796Y013940D02*
X004547Y013940D01*
X004817Y013940D02*
X004874Y013940D01*
X004874Y013842D02*
X004817Y013842D01*
X004817Y013743D02*
X004874Y013743D01*
X004874Y013546D02*
X004817Y013546D01*
X004817Y013448D02*
X004874Y013448D01*
X004874Y013349D02*
X004817Y013349D01*
X004845Y012955D02*
X005055Y012955D01*
X005038Y012857D02*
X004862Y012857D01*
X004862Y012758D02*
X005038Y012758D01*
X005038Y012561D02*
X004862Y012561D01*
X004862Y012463D02*
X005038Y012463D01*
X005046Y012364D02*
X004854Y012364D01*
X004738Y012266D02*
X005162Y012266D01*
X005077Y010887D02*
X007610Y010887D01*
X007610Y010985D02*
X007355Y010985D01*
X007355Y011084D02*
X007610Y011084D01*
X007610Y011182D02*
X007355Y011182D01*
X007355Y011281D02*
X007610Y011281D01*
X007610Y011379D02*
X007355Y011379D01*
X007355Y011478D02*
X007610Y011478D01*
X007610Y011576D02*
X007355Y011576D01*
X007355Y011675D02*
X007610Y011675D01*
X007610Y011773D02*
X007355Y011773D01*
X007309Y011872D02*
X007610Y011872D01*
X007610Y011970D02*
X006224Y011970D01*
X006224Y012069D02*
X007610Y012069D01*
X007610Y012167D02*
X006224Y012167D01*
X006224Y012266D02*
X007610Y012266D01*
X007610Y012364D02*
X006318Y012364D01*
X006322Y012463D02*
X007610Y012463D01*
X007610Y012561D02*
X006322Y012561D01*
X006322Y012660D02*
X007610Y012660D01*
X007610Y012758D02*
X006322Y012758D01*
X006403Y013743D02*
X006537Y013743D01*
X006537Y013842D02*
X006403Y013842D01*
X006394Y013940D02*
X006545Y013940D01*
X006500Y014039D02*
X006329Y014039D01*
X006427Y014137D02*
X006500Y014137D01*
X006500Y014236D02*
X006466Y014236D01*
X006500Y014237D02*
X006500Y014237D01*
X006486Y015221D02*
X007610Y015221D01*
X007610Y015319D02*
X006486Y015319D01*
X006486Y015418D02*
X007610Y015418D01*
X007610Y015516D02*
X006486Y015516D01*
X006404Y015615D02*
X007610Y015615D01*
X007610Y015713D02*
X006306Y015713D01*
X006207Y015812D02*
X007610Y015812D01*
X007610Y015910D02*
X006109Y015910D01*
X006010Y016009D02*
X007610Y016009D01*
X007610Y016107D02*
X005912Y016107D01*
X005813Y016206D02*
X007610Y016206D01*
X007610Y016304D02*
X003035Y016304D01*
X003099Y015713D02*
X002606Y015713D01*
X002604Y015812D02*
X002507Y015812D01*
X002604Y015910D02*
X002409Y015910D01*
X002480Y016403D02*
X007610Y016403D01*
X007610Y016501D02*
X002480Y016501D01*
X002480Y016600D02*
X007610Y016600D01*
X007610Y016698D02*
X002480Y016698D01*
X002480Y016797D02*
X007610Y016797D01*
X007610Y016895D02*
X002480Y016895D01*
X002480Y016994D02*
X007610Y016994D01*
X007610Y017092D02*
X000310Y017092D01*
X000310Y016994D02*
X000520Y016994D01*
X000520Y017001D02*
X000520Y016039D01*
X000584Y015975D01*
X000916Y015975D01*
X000980Y016039D01*
X000980Y017001D01*
X000916Y017065D01*
X000584Y017065D01*
X000520Y017001D01*
X000520Y016895D02*
X000310Y016895D01*
X000310Y016797D02*
X000520Y016797D01*
X000520Y016698D02*
X000310Y016698D01*
X000310Y016600D02*
X000520Y016600D01*
X000520Y016501D02*
X000310Y016501D01*
X000310Y016403D02*
X000520Y016403D01*
X000520Y016304D02*
X000310Y016304D01*
X000310Y016206D02*
X000520Y016206D01*
X000520Y016107D02*
X000310Y016107D01*
X000310Y016009D02*
X000551Y016009D01*
X000410Y015615D02*
X000310Y015615D01*
X000310Y015713D02*
X001618Y015713D01*
X001611Y015615D02*
X000990Y015615D01*
X001084Y015975D02*
X001020Y016039D01*
X001020Y017001D01*
X001084Y017065D01*
X001416Y017065D01*
X001480Y017001D01*
X001480Y016039D01*
X001416Y015975D01*
X001084Y015975D01*
X001051Y016009D02*
X000949Y016009D01*
X000980Y016107D02*
X001020Y016107D01*
X001020Y016206D02*
X000980Y016206D01*
X000980Y016304D02*
X001020Y016304D01*
X001020Y016403D02*
X000980Y016403D01*
X000980Y016501D02*
X001020Y016501D01*
X001020Y016600D02*
X000980Y016600D01*
X000980Y016698D02*
X001020Y016698D01*
X001020Y016797D02*
X000980Y016797D01*
X000980Y016895D02*
X001020Y016895D01*
X001020Y016994D02*
X000980Y016994D01*
X000916Y018035D02*
X000980Y018099D01*
X000980Y019061D01*
X000916Y019125D01*
X000584Y019125D01*
X000520Y019061D01*
X000520Y018099D01*
X000584Y018035D01*
X000916Y018035D01*
X000958Y018077D02*
X001042Y018077D01*
X001020Y018099D02*
X001084Y018035D01*
X001416Y018035D01*
X001480Y018099D01*
X001480Y019061D01*
X001416Y019125D01*
X001084Y019125D01*
X001020Y019061D01*
X001020Y018099D01*
X001020Y018176D02*
X000980Y018176D01*
X000980Y018274D02*
X001020Y018274D01*
X001020Y018373D02*
X000980Y018373D01*
X000980Y018471D02*
X001020Y018471D01*
X001020Y018570D02*
X000980Y018570D01*
X000980Y018668D02*
X001020Y018668D01*
X001020Y018767D02*
X000980Y018767D01*
X000980Y018865D02*
X001020Y018865D01*
X001020Y018964D02*
X000980Y018964D01*
X000979Y019062D02*
X001021Y019062D01*
X001479Y019062D02*
X001521Y019062D01*
X001520Y019061D02*
X001584Y019125D01*
X001916Y019125D01*
X001980Y019061D01*
X001980Y018099D01*
X001916Y018035D01*
X001584Y018035D01*
X001520Y018099D01*
X001520Y019061D01*
X001520Y018964D02*
X001480Y018964D01*
X001480Y018865D02*
X001520Y018865D01*
X001520Y018767D02*
X001480Y018767D01*
X001480Y018668D02*
X001520Y018668D01*
X001520Y018570D02*
X001480Y018570D01*
X001480Y018471D02*
X001520Y018471D01*
X001520Y018373D02*
X001480Y018373D01*
X001480Y018274D02*
X001520Y018274D01*
X001520Y018176D02*
X001480Y018176D01*
X001458Y018077D02*
X001542Y018077D01*
X001520Y016994D02*
X001480Y016994D01*
X001480Y016895D02*
X001520Y016895D01*
X001520Y016797D02*
X001480Y016797D01*
X001480Y016698D02*
X001520Y016698D01*
X001520Y016600D02*
X001480Y016600D01*
X001480Y016501D02*
X001520Y016501D01*
X001520Y016403D02*
X001480Y016403D01*
X001480Y016304D02*
X001520Y016304D01*
X001520Y016206D02*
X001480Y016206D01*
X001480Y016107D02*
X001520Y016107D01*
X001551Y016009D02*
X001449Y016009D01*
X001560Y015910D02*
X000310Y015910D01*
X000310Y015812D02*
X001560Y015812D01*
X001540Y014728D02*
X001554Y014728D01*
X001540Y014630D02*
X001554Y014630D01*
X001540Y014531D02*
X001554Y014531D01*
X001540Y014433D02*
X001564Y014433D01*
X001540Y014334D02*
X001740Y014334D01*
X001740Y014236D02*
X001540Y014236D01*
X001540Y014137D02*
X001740Y014137D01*
X001740Y014039D02*
X001540Y014039D01*
X001540Y013940D02*
X001740Y013940D01*
X001740Y013842D02*
X001540Y013842D01*
X001540Y013743D02*
X001740Y013743D01*
X001740Y013645D02*
X001540Y013645D01*
X001540Y013546D02*
X001740Y013546D01*
X001740Y013448D02*
X001540Y013448D01*
X001540Y013349D02*
X001740Y013349D01*
X001740Y013251D02*
X001469Y013251D01*
X001429Y013210D02*
X001429Y013210D01*
X001371Y013152D02*
X001740Y013152D01*
X001740Y013054D02*
X001272Y013054D01*
X001204Y012955D02*
X001740Y012955D01*
X001740Y012857D02*
X001163Y012857D01*
X001072Y012758D02*
X001740Y012758D01*
X001740Y012660D02*
X000927Y012660D01*
X001053Y012561D02*
X001686Y012561D01*
X001670Y012463D02*
X001151Y012463D01*
X001196Y012364D02*
X001670Y012364D01*
X001759Y012266D02*
X001237Y012266D01*
X001900Y012450D02*
X001900Y012600D01*
X001900Y014646D01*
X002060Y014334D02*
X002274Y014334D01*
X002274Y014433D02*
X002236Y014433D01*
X002246Y014531D02*
X002284Y014531D01*
X002246Y014630D02*
X003430Y014630D01*
X003430Y014728D02*
X002246Y014728D01*
X002274Y014137D02*
X002060Y014137D01*
X002060Y014039D02*
X002274Y014039D01*
X002288Y013940D02*
X002060Y013940D01*
X002060Y013842D02*
X002851Y013842D01*
X002753Y013743D02*
X002060Y013743D01*
X002060Y013645D02*
X002730Y013645D01*
X002730Y013546D02*
X002060Y013546D01*
X002060Y013448D02*
X002730Y013448D01*
X002750Y013940D02*
X002650Y013940D01*
X002650Y014039D02*
X002750Y014039D01*
X002750Y014137D02*
X002650Y014137D01*
X002650Y014236D02*
X002060Y014236D01*
X002060Y013349D02*
X002322Y013349D01*
X002314Y013251D02*
X002060Y013251D01*
X002060Y013152D02*
X002314Y013152D01*
X002314Y013054D02*
X002060Y013054D01*
X002060Y012955D02*
X002314Y012955D01*
X002314Y012857D02*
X002060Y012857D01*
X002060Y012758D02*
X002334Y012758D01*
X002750Y014236D02*
X003132Y014236D01*
X003126Y014291D02*
X003126Y014497D01*
X003115Y014535D01*
X003096Y014569D01*
X003068Y014597D01*
X003033Y014617D01*
X002995Y014627D01*
X002750Y014627D01*
X002750Y014291D01*
X003126Y014291D01*
X003126Y014334D02*
X003430Y014334D01*
X003430Y014433D02*
X003126Y014433D01*
X003116Y014531D02*
X003430Y014531D01*
X003430Y014827D02*
X002750Y014827D01*
X002848Y014925D02*
X003430Y014925D01*
X003430Y015024D02*
X002947Y015024D01*
X002881Y014958D02*
X002881Y014958D01*
X002750Y014531D02*
X002650Y014531D01*
X002650Y014433D02*
X002750Y014433D01*
X002750Y014334D02*
X002650Y014334D01*
X002704Y015615D02*
X003000Y015615D01*
X003341Y015418D02*
X003892Y015418D01*
X003961Y015319D02*
X003296Y015319D01*
X003296Y015221D02*
X003961Y015221D01*
X004202Y015589D02*
X004130Y015660D01*
X004130Y015745D01*
X004015Y015860D01*
X005621Y015860D01*
X006106Y015375D01*
X006106Y015179D01*
X006079Y015195D01*
X006041Y015206D01*
X005892Y015206D01*
X005892Y014730D01*
X005835Y014730D01*
X005835Y015206D01*
X005686Y015206D01*
X005648Y015195D01*
X005614Y015176D01*
X005604Y015166D01*
X005227Y015166D01*
X005214Y015152D01*
X005200Y015166D01*
X004794Y015166D01*
X004781Y015152D01*
X004767Y015166D01*
X004734Y015166D01*
X004734Y015359D01*
X004830Y015455D01*
X004830Y015645D01*
X004695Y015780D01*
X004505Y015780D01*
X004370Y015645D01*
X004370Y015455D01*
X004394Y015431D01*
X004394Y015166D01*
X004361Y015166D01*
X004348Y015152D01*
X004334Y015166D01*
X004301Y015166D01*
X004301Y015489D01*
X004202Y015589D01*
X004176Y015615D02*
X004370Y015615D01*
X004370Y015516D02*
X004274Y015516D01*
X004301Y015418D02*
X004394Y015418D01*
X004394Y015319D02*
X004301Y015319D01*
X004301Y015221D02*
X004394Y015221D01*
X004438Y015713D02*
X004130Y015713D01*
X004064Y015812D02*
X005670Y015812D01*
X005768Y015713D02*
X004762Y015713D01*
X004830Y015615D02*
X005867Y015615D01*
X005965Y015516D02*
X004830Y015516D01*
X004793Y015418D02*
X006064Y015418D01*
X006106Y015319D02*
X004734Y015319D01*
X004734Y015221D02*
X006106Y015221D01*
X005892Y015122D02*
X005835Y015122D01*
X005835Y015024D02*
X005892Y015024D01*
X005892Y014925D02*
X005835Y014925D01*
X005835Y014827D02*
X005892Y014827D01*
X005605Y014236D02*
X003956Y014236D01*
X003796Y014137D02*
X005547Y014137D01*
X005448Y014039D02*
X003796Y014039D01*
X003737Y014728D02*
X003699Y014728D01*
X003699Y014827D02*
X003737Y014827D01*
X003737Y014925D02*
X003699Y014925D01*
X003699Y015024D02*
X003737Y015024D01*
X003737Y015122D02*
X003699Y015122D01*
X003709Y015516D02*
X003439Y015516D01*
X003445Y015122D02*
X003296Y015122D01*
X003538Y015615D02*
X003670Y015615D01*
X003670Y015713D02*
X003636Y015713D01*
X003735Y015812D02*
X003736Y015812D01*
X003591Y016206D02*
X003296Y016206D01*
X003296Y016107D02*
X003493Y016107D01*
X003394Y016009D02*
X003296Y016009D01*
X003533Y017979D02*
X000310Y017979D01*
X000310Y018077D02*
X000542Y018077D01*
X000520Y018176D02*
X000310Y018176D01*
X000310Y018274D02*
X000520Y018274D01*
X000520Y018373D02*
X000310Y018373D01*
X000310Y018471D02*
X000520Y018471D01*
X000520Y018570D02*
X000310Y018570D01*
X000310Y018668D02*
X000520Y018668D01*
X000520Y018767D02*
X000310Y018767D01*
X000310Y018865D02*
X000520Y018865D01*
X000520Y018964D02*
X000310Y018964D01*
X000310Y019062D02*
X000521Y019062D01*
X000465Y019456D02*
X004287Y019456D01*
X004189Y019555D02*
X002356Y019555D01*
X002546Y019633D02*
X002546Y019633D01*
X002428Y019155D02*
X002390Y019165D01*
X002260Y019165D01*
X002260Y018590D01*
X002520Y018590D01*
X002520Y019035D01*
X002510Y019073D01*
X002490Y019107D01*
X002462Y019135D01*
X002428Y019155D01*
X002406Y019161D02*
X004673Y019161D01*
X004502Y019259D02*
X000331Y019259D01*
X000311Y019161D02*
X002094Y019161D01*
X002110Y019165D02*
X002072Y019155D01*
X002038Y019135D01*
X002010Y019107D01*
X001990Y019073D01*
X001980Y019035D01*
X001980Y018590D01*
X002240Y018590D01*
X002240Y019165D01*
X002110Y019165D01*
X002240Y019161D02*
X002260Y019161D01*
X002260Y019062D02*
X002240Y019062D01*
X002240Y018964D02*
X002260Y018964D01*
X002260Y018865D02*
X002240Y018865D01*
X002240Y018767D02*
X002260Y018767D01*
X002260Y018668D02*
X002240Y018668D01*
X002240Y018590D02*
X002260Y018590D01*
X002260Y018570D01*
X002520Y018570D01*
X002520Y018125D01*
X002510Y018087D01*
X002490Y018053D01*
X002462Y018025D01*
X002428Y018005D01*
X002390Y017995D01*
X002260Y017995D01*
X002260Y018570D01*
X002240Y018570D01*
X002240Y017995D01*
X002110Y017995D01*
X002072Y018005D01*
X002038Y018025D01*
X002010Y018053D01*
X001990Y018087D01*
X001980Y018125D01*
X001980Y018570D01*
X002240Y018570D01*
X002240Y018590D01*
X002240Y018570D02*
X002260Y018570D01*
X002260Y018471D02*
X002240Y018471D01*
X002240Y018373D02*
X002260Y018373D01*
X002260Y018274D02*
X002240Y018274D01*
X002240Y018176D02*
X002260Y018176D01*
X002260Y018077D02*
X002240Y018077D01*
X001996Y018077D02*
X001958Y018077D01*
X001980Y018176D02*
X001980Y018176D01*
X001980Y018274D02*
X001980Y018274D01*
X001980Y018373D02*
X001980Y018373D01*
X001980Y018471D02*
X001980Y018471D01*
X001980Y018570D02*
X001980Y018570D01*
X001980Y018668D02*
X001980Y018668D01*
X001980Y018767D02*
X001980Y018767D01*
X001980Y018865D02*
X001980Y018865D01*
X001980Y018964D02*
X001980Y018964D01*
X001979Y019062D02*
X001987Y019062D01*
X002513Y019062D02*
X004843Y019062D01*
X004920Y019018D02*
X004920Y019018D01*
X005096Y019555D02*
X005534Y019555D01*
X005420Y019456D02*
X007451Y019456D01*
X007546Y019358D02*
X006710Y019358D01*
X006761Y019336D02*
X006761Y019336D01*
X006839Y019259D02*
X007587Y019259D01*
X007609Y019161D02*
X006925Y019161D01*
X006916Y019182D02*
X006916Y019182D01*
X006965Y019062D02*
X007610Y019062D01*
X007610Y018964D02*
X007000Y018964D01*
X007124Y018865D02*
X007162Y018865D01*
X007162Y018767D02*
X007124Y018767D01*
X007124Y018668D02*
X007162Y018668D01*
X007162Y018570D02*
X007124Y018570D01*
X007124Y018471D02*
X007162Y018471D01*
X007162Y018373D02*
X007124Y018373D01*
X007124Y018274D02*
X007162Y018274D01*
X007162Y018176D02*
X007124Y018176D01*
X007124Y018077D02*
X007162Y018077D01*
X007162Y017979D02*
X007124Y017979D01*
X007384Y017979D02*
X007610Y017979D01*
X007610Y018077D02*
X007431Y018077D01*
X007431Y018176D02*
X007610Y018176D01*
X007610Y018274D02*
X007431Y018274D01*
X007431Y018373D02*
X007610Y018373D01*
X007610Y018471D02*
X007431Y018471D01*
X007431Y018570D02*
X007610Y018570D01*
X007610Y018668D02*
X007431Y018668D01*
X007431Y018767D02*
X007610Y018767D01*
X007610Y018865D02*
X007414Y018865D01*
X007610Y017880D02*
X000310Y017880D01*
X000310Y017782D02*
X007610Y017782D01*
X007610Y017683D02*
X000310Y017683D01*
X000310Y017585D02*
X007610Y017585D01*
X007610Y017486D02*
X000310Y017486D01*
X000310Y017388D02*
X007610Y017388D01*
X007610Y017289D02*
X000310Y017289D01*
X000310Y017191D02*
X007610Y017191D01*
X007610Y015122D02*
X007370Y015122D01*
X007391Y015024D02*
X007610Y015024D01*
X007610Y014925D02*
X007391Y014925D01*
X007391Y014827D02*
X007610Y014827D01*
X007610Y014728D02*
X007391Y014728D01*
X007391Y014630D02*
X007610Y014630D01*
X007610Y014531D02*
X007391Y014531D01*
X007391Y014433D02*
X007610Y014433D01*
X007610Y014334D02*
X007391Y014334D01*
X007610Y014236D02*
X006960Y014236D01*
X006960Y014237D02*
X006960Y014237D01*
X007030Y014137D02*
X007610Y014137D01*
X007610Y014039D02*
X007030Y014039D01*
X007064Y013940D02*
X007610Y013940D01*
X007610Y013842D02*
X007072Y013842D01*
X007072Y013743D02*
X007610Y013743D01*
X007610Y013645D02*
X007072Y013645D01*
X007072Y013546D02*
X007610Y013546D01*
X007610Y013448D02*
X007072Y013448D01*
X007070Y013349D02*
X007610Y013349D01*
X007610Y013251D02*
X007079Y013251D01*
X007148Y013152D02*
X007610Y013152D01*
X007610Y013054D02*
X007168Y013054D01*
X007151Y012955D02*
X007610Y012955D01*
X007610Y012857D02*
X007086Y012857D01*
X007610Y010788D02*
X004978Y010788D01*
X004880Y010690D02*
X006763Y010690D01*
X006665Y010591D02*
X004781Y010591D01*
X004677Y009508D02*
X004667Y009508D01*
X004667Y009409D02*
X004677Y009409D01*
X004667Y009311D02*
X004677Y009311D01*
X004667Y009212D02*
X004677Y009212D01*
X004652Y008523D02*
X004468Y008523D01*
X004350Y009100D02*
X004350Y009583D01*
X004357Y009590D01*
X004350Y009100D02*
X003750Y009100D01*
X003728Y009122D01*
X003728Y009590D01*
X003570Y010000D02*
X004230Y010000D01*
X004230Y010099D02*
X003570Y010099D01*
X003570Y010197D02*
X004230Y010197D01*
X004048Y009902D02*
X004038Y009902D01*
X004038Y009803D02*
X004048Y009803D01*
X004038Y009705D02*
X004048Y009705D01*
X004038Y009606D02*
X004048Y009606D01*
X003583Y010493D02*
X006566Y010493D01*
X006600Y010300D02*
X006850Y010550D01*
X007200Y010550D01*
X007052Y010197D02*
X006848Y010197D01*
X006863Y010099D02*
X007037Y010099D01*
X007037Y010000D02*
X006863Y010000D01*
X006863Y009902D02*
X007037Y009902D01*
X007037Y009803D02*
X006863Y009803D01*
X006863Y009705D02*
X007037Y009705D01*
X006822Y010296D02*
X007610Y010296D01*
X007610Y010394D02*
X007369Y010394D01*
X007430Y010493D02*
X007610Y010493D01*
X007610Y010591D02*
X007430Y010591D01*
X007386Y010690D02*
X007610Y010690D01*
X007610Y010197D02*
X007557Y010197D01*
X007572Y010099D02*
X007610Y010099D01*
X007610Y010000D02*
X007572Y010000D01*
X007572Y009902D02*
X007610Y009902D01*
X007610Y009803D02*
X007572Y009803D01*
X007572Y009705D02*
X007610Y009705D01*
X007610Y009606D02*
X007560Y009606D01*
X007610Y009508D02*
X007474Y009508D01*
X007399Y009409D02*
X007610Y009409D01*
X007610Y009311D02*
X007301Y009311D01*
X006600Y009959D02*
X006600Y010300D01*
X006600Y009959D02*
X006596Y009954D01*
X006590Y006553D02*
X005475Y006553D01*
X005522Y006454D02*
X006590Y006454D01*
X006590Y006356D02*
X005522Y006356D01*
X005522Y006257D02*
X006651Y006257D01*
X006590Y006159D02*
X005594Y006159D01*
X005530Y007636D02*
X002870Y007636D01*
X002870Y007735D02*
X005530Y007735D01*
X005530Y007833D02*
X002870Y007833D01*
X003700Y003700D02*
X003525Y003525D01*
X003200Y003525D01*
X005153Y013842D02*
X005287Y013842D01*
X005295Y013940D02*
X005144Y013940D01*
X005202Y017979D02*
X005226Y017979D01*
X005122Y018964D02*
X002520Y018964D01*
X002520Y018865D02*
X003494Y018865D01*
X003470Y018767D02*
X002520Y018767D01*
X002520Y018668D02*
X003470Y018668D01*
X003470Y018570D02*
X002520Y018570D01*
X002520Y018471D02*
X003470Y018471D01*
X003470Y018373D02*
X002520Y018373D01*
X002520Y018274D02*
X003470Y018274D01*
X003470Y018176D02*
X002520Y018176D01*
X002504Y018077D02*
X003470Y018077D01*
X003903Y017979D02*
X003927Y017979D01*
X004336Y017979D02*
X004360Y017979D01*
X004769Y017979D02*
X004793Y017979D01*
X004460Y019284D02*
X004460Y019284D01*
X004386Y019358D02*
X000372Y019358D01*
X001980Y016994D02*
X002020Y016994D01*
X002020Y016895D02*
X001980Y016895D01*
X001980Y016797D02*
X002020Y016797D01*
X002020Y016698D02*
X001980Y016698D01*
X001980Y016600D02*
X002020Y016600D01*
X002020Y016501D02*
X001980Y016501D01*
X001980Y016403D02*
X002020Y016403D01*
X002020Y016304D02*
X001980Y016304D01*
X001980Y016206D02*
X002010Y016206D01*
X002010Y016107D02*
X001980Y016107D01*
X001949Y016009D02*
X002051Y016009D01*
X005635Y017979D02*
X005659Y017979D01*
X006268Y017979D02*
X006325Y017979D01*
X006325Y018077D02*
X006268Y018077D01*
X006268Y018176D02*
X006325Y018176D01*
X006325Y018274D02*
X006268Y018274D01*
X006268Y018373D02*
X006325Y018373D01*
D28*
X006730Y018870D02*
X006728Y018901D01*
X006723Y018932D01*
X006714Y018962D01*
X006702Y018991D01*
X006687Y019019D01*
X006669Y019045D01*
X006648Y019068D01*
X006625Y019089D01*
X006599Y019107D01*
X006571Y019122D01*
X006542Y019134D01*
X006512Y019143D01*
X006481Y019148D01*
X006450Y019150D01*
X005700Y019150D01*
X005619Y019152D01*
X005539Y019157D01*
X005458Y019167D01*
X005378Y019180D01*
X005299Y019196D01*
X005221Y019217D01*
X005144Y019241D01*
X005068Y019268D01*
X004993Y019299D01*
X004920Y019333D01*
X004848Y019371D01*
X004779Y019412D01*
X004711Y019456D01*
X004645Y019503D01*
X004582Y019554D01*
X004521Y019607D01*
X004463Y019663D01*
X004407Y019721D01*
X004354Y019782D01*
X004303Y019845D01*
X004256Y019911D01*
X004212Y019979D01*
X004171Y020048D01*
X004133Y020120D01*
X004099Y020193D01*
X004068Y020268D01*
X004041Y020344D01*
X004017Y020421D01*
X003996Y020499D01*
X003980Y020578D01*
X003967Y020658D01*
X003957Y020739D01*
X003952Y020819D01*
X003950Y020900D01*
X003950Y023400D01*
X006730Y018870D02*
X006730Y018441D01*
X003200Y003525D02*
X002471Y002796D01*
X001700Y002796D01*
X001554Y002650D01*
X001200Y002650D01*
X000950Y002400D01*
X000950Y001400D01*
D29*
X001100Y013150D02*
X000700Y013150D01*
X001100Y013150D02*
X001350Y013400D01*
X001350Y014900D01*
X001450Y015000D01*
X002654Y015000D01*
X002802Y015148D01*
X002802Y015248D01*
X002300Y015750D01*
X001850Y015750D01*
X001750Y015850D01*
X001750Y016520D01*
X002200Y016150D02*
X002250Y016200D01*
X002250Y016520D01*
X002200Y016150D02*
X002920Y016150D01*
X002950Y016120D01*
X003704Y016050D02*
X002950Y015296D01*
X002802Y015148D01*
X003704Y016050D02*
X005700Y016050D01*
X006296Y015454D01*
X006296Y014701D01*
X005877Y008700D02*
X004800Y008700D01*
X005877Y008700D02*
X005890Y008687D01*
X005304Y004116D02*
X005320Y004100D01*
X004580Y003700D02*
X004580Y002916D01*
X004596Y002800D01*
D30*
X004900Y003400D03*
X004950Y003900D03*
X005000Y005650D03*
X004450Y006900D03*
X004100Y008650D03*
X004800Y008700D03*
X005300Y010650D03*
X005950Y009600D03*
X004950Y013100D03*
X004250Y013400D03*
X004250Y013900D03*
X004600Y015550D03*
X003900Y015650D03*
X003150Y014800D03*
X003250Y012250D03*
X002450Y012250D03*
X002250Y013650D03*
X001900Y012450D03*
X001350Y012650D03*
X001300Y010450D03*
X001400Y009850D03*
X002200Y010100D03*
X002250Y010700D03*
X002400Y009450D03*
X001700Y006800D03*
X002400Y006250D03*
X002500Y005250D03*
X003200Y007400D03*
X005400Y015550D03*
X007200Y010550D03*
X007200Y005250D03*
D31*
X006850Y003250D03*
X006350Y005350D03*
X005750Y005450D03*
X005650Y002250D03*
X002950Y002500D03*
X001950Y002250D03*
X000950Y003250D03*
X004100Y016550D03*
X004100Y017550D03*
X004600Y017550D03*
X004600Y016550D03*
X005100Y016550D03*
X005100Y017550D03*
X005600Y017550D03*
X005600Y016550D03*
X006100Y016550D03*
X006100Y017550D03*
X006600Y017550D03*
X006600Y016550D03*
X006900Y013050D03*
X006700Y012350D03*
X004050Y019250D03*
X003350Y019250D03*
X002100Y017650D03*
X001550Y017650D03*
X000950Y017650D03*
D32*
X000800Y015350D02*
X000700Y015250D01*
X000700Y015150D01*
X000800Y015350D02*
X001896Y015350D01*
X001900Y015354D01*
X005304Y004900D02*
X005450Y004754D01*
X006200Y004754D01*
X006950Y004754D01*
X007054Y004650D01*
X007200Y004650D01*
X007450Y004400D01*
X007450Y002650D01*
X006950Y002150D01*
X006950Y001400D01*
X006804Y013650D02*
X006800Y013654D01*
X006800Y014050D01*
X006730Y014120D01*
X006730Y014701D01*
X007143Y014701D01*
X006730Y014701D02*
X006296Y014701D01*
D33*
X006296Y014246D01*
X006100Y014050D01*
X005700Y014050D01*
X005600Y013950D01*
X005600Y013696D01*
X005554Y013650D01*
X006054Y012650D02*
X006054Y011410D01*
X006064Y011400D01*
X005350Y011400D01*
X004700Y010750D01*
X003600Y010750D01*
X003400Y010550D01*
X003400Y009603D01*
X003413Y009590D01*
X003098Y009590D02*
X002836Y009852D01*
X002836Y011400D01*
X003650Y011400D01*
X003800Y011550D01*
X003800Y012604D01*
X003846Y012650D01*
X003450Y014004D02*
X003354Y014004D01*
X003200Y013850D01*
X003100Y013850D01*
X002900Y013650D01*
X002900Y013259D01*
X002700Y013059D01*
X002950Y016004D02*
X002950Y016120D01*
X003900Y015650D02*
X004131Y015419D01*
X004131Y014701D01*
X004564Y014701D02*
X004564Y015514D01*
X004600Y015550D01*
X004400Y010150D02*
X006400Y010150D01*
X006596Y009954D01*
X006596Y009900D01*
X006700Y009450D02*
X007200Y009450D01*
X007304Y009554D01*
X007304Y009900D01*
X007200Y008900D02*
X006850Y008900D01*
X006500Y008550D01*
X006500Y008050D01*
X006200Y007750D01*
X005897Y007750D01*
X005890Y007743D01*
X005912Y007450D02*
X006400Y007450D01*
X006500Y007550D01*
X006500Y007750D01*
X006900Y008150D01*
X007200Y008150D01*
X007200Y007400D02*
X006850Y007400D01*
X006600Y007150D01*
X005927Y007150D01*
X005890Y007113D01*
X005890Y007428D02*
X005912Y007450D01*
X005897Y008050D02*
X006200Y008050D01*
X006300Y008150D01*
X006300Y008650D01*
X006500Y008850D01*
X006500Y009250D01*
X006700Y009450D01*
X005890Y008372D02*
X005868Y008350D01*
X004400Y008350D01*
X004100Y008650D01*
X004357Y009590D02*
X004400Y009633D01*
X004400Y010150D01*
X003400Y006223D02*
X003413Y006210D01*
X004043Y005388D02*
X003804Y005150D01*
X004043Y005388D02*
X004043Y006210D01*
X004368Y004312D02*
X003200Y004312D01*
X002246Y004796D02*
X002500Y005250D01*
X002246Y004796D02*
X001950Y004796D01*
X001900Y004746D01*
X001900Y004050D01*
X001700Y003850D01*
X001700Y003504D01*
X004368Y004312D02*
X004580Y004100D01*
X005000Y005650D02*
X005000Y006197D01*
X004987Y006210D01*
X005302Y006210D02*
X005612Y005900D01*
X007200Y005900D01*
X007200Y005250D02*
X007200Y004650D01*
X007200Y006650D02*
X007100Y006650D01*
X007000Y006750D01*
X005938Y006750D01*
X005890Y006798D01*
X005897Y008050D02*
X005890Y008057D01*
X005304Y004900D02*
X005304Y004116D01*
X006900Y013050D02*
X006900Y013554D01*
X006804Y013650D01*
M02*
